<svg xmlns="http://www.w3.org/2000/svg" width="9" height="12" viewBox="0 0 9 12">
  <path d="M1.52660557,5.2440564 L1.52660557,5.2440564 L1.52660557,7.69432224 C1.5091199,7.79358201 1.5,7.89572597 1.5,8 C1.5,8.96649831 2.28350169,9.75 3.25,9.75 C4.01275231,9.75 4.66153006,9.26201688 4.90116884,8.58121503 L5.96139885,9.79251992 C5.3795828,10.670819 4.38242888,11.25 3.25,11.25 C1.45507456,11.25 0,9.79492544 0,8 C0,6.83812101 0.60969723,5.81864444 1.52660557,5.2440564 Z M2.5,6.25723338 L2.5,4 L4,4 L4,5.75 L6.11543914,5.75 L8.33616216,8.53211762 L7.16383784,9.46788238 L5.40459264,7.25 L3.49959601,7.25 C2.9538426,7.25 2.5,6.80552324 2.5,6.25723338 Z M3.25,3 C2.42157288,3 1.75,2.32842712 1.75,1.5 C1.75,0.671572875 2.42157288,0 3.25,0 C4.07842712,0 4.75,0.671572875 4.75,1.5 C4.75,2.32842712 4.07842712,3 3.25,3 Z"/>
</svg>
