<svg xmlns="http://www.w3.org/2000/svg" width="11" height="12" viewBox="0 0 11 12">
  <path fill-rule="evenodd" d="M7.25976562,1.50341797 L8.37060547,1.50341797 C8.38085938,1.171875 8.60644531,0.953125 8.93457031,0.953125 C9.25585938,0.953125 9.48144531,1.14453125 9.48144531,1.42138672 C9.48144531,1.72216797 9.36181641,1.86572266 8.89697266,2.13916016 C8.421875,2.41259766 8.25097656,2.72021484 8.31591797,3.3046875 L8.32617188,3.44140625 L9.39257812,3.44140625 L9.39257812,3.28076172 C9.39257812,2.95947266 9.52246094,2.80566406 9.99072266,2.53564453 C10.4931641,2.24511719 10.7290039,1.89648438 10.7290039,1.390625 C10.7290039,0.5703125 10.0522461,0.0234375 9.01318359,0.0234375 C7.91943359,0.0234375 7.27001953,0.607910156 7.25976562,1.50341797 Z M8.89013672,5.11962891 C8.44921875,5.11962891 8.18945312,4.890625 8.18945312,4.49755859 C8.18945312,4.10107422 8.44921875,3.87207031 8.89013672,3.87207031 C9.33105469,3.87207031 9.58740234,4.10107422 9.58740234,4.49755859 C9.58740234,4.890625 9.33105469,5.11962891 8.89013672,5.11962891 Z M1.52660557,5.2440564 L1.52660557,5.2440564 L1.52660557,7.69432224 C1.5091199,7.79358201 1.5,7.89572597 1.5,8 C1.5,8.96649831 2.28350169,9.75 3.25,9.75 C4.01275231,9.75 4.66153006,9.26201688 4.90116884,8.58121503 L5.96139885,9.79251992 C5.3795828,10.670819 4.38242888,11.25 3.25,11.25 C1.45507456,11.25 0,9.79492544 0,8 C0,6.83812101 0.60969723,5.81864444 1.52660557,5.2440564 Z M2.5,6.25723338 L2.5,4 L4,4 L4,5.75 L6.11543914,5.75 L8.33616216,8.53211762 L7.16383784,9.46788238 L5.40459264,7.25 L3.49959601,7.25 C2.9538426,7.25 2.5,6.80552324 2.5,6.25723338 Z M3.25,3 C2.42157288,3 1.75,2.32842712 1.75,1.5 C1.75,0.671572875 2.42157288,0 3.25,0 C4.07842712,0 4.75,0.671572875 4.75,1.5 C4.75,2.32842712 4.07842712,3 3.25,3 Z"/>
</svg>
