<?xml version="1.0" encoding="UTF-8"?>
<svg width="37px" height="14px" viewBox="0 0 37 14" version="1.1" xmlns="http://www.w3.org/2000/svg" xmlns:xlink="http://www.w3.org/1999/xlink">
    <desc>Created with Sketch.</desc>
    <g id="Realtime-/-Train-/-x-/-Head" stroke="none" stroke-width="1" fill="none" fill-rule="evenodd">
        <path d="M2,0 L27.2182683,0 C30.8766957,0 34.0690082,2.48171639 34.9711961,6.02715676 L36.3655669,11.5067892 C36.6379597,12.5772451 35.9910017,13.6658391 34.9205457,13.938232 C34.7593503,13.9792504 34.5936674,14 34.4273349,14 L1,14 C0.44771525,14 1.42108547e-14,13.5522847 1.42108547e-14,13 L1.42108547e-14,2 C1.42108547e-14,0.8954305 0.8954305,0 2,0 Z M3,2 C2.44771525,2 2,2.44771525 2,3 L2,7 L8,7 L8,2 L3,2 Z M10,2 L10,7 L16,7 L16,2 L10,2 Z M18,2 L18,7 L24,7 L24,2 L18,2 Z M26,2 L26,7 L33,7 L32.8779507,6.52036757 C32.2013097,3.86128729 29.9620888,2 27.2182683,2 L26,2 Z" id="Status" fill="#23B15E"></path>
    </g>
</svg>