<?xml version="1.0" encoding="UTF-8"?>
<svg width="26px" height="14px" viewBox="0 0 26 14" version="1.1" xmlns="http://www.w3.org/2000/svg" xmlns:xlink="http://www.w3.org/1999/xlink">
    <!-- Generator: Sketch 59.1 (86144) - https://sketch.com -->
    <title>Realtime / Train / x / Carriage</title>
    <desc>Created with Sketch.</desc>
    <g id="Realtime-/-Train-/-x-/-Carriage" stroke="none" stroke-width="1" fill="none" fill-rule="evenodd">
        <path d="M2,0 L24,0 C25.1045695,0 26,0.8954305 26,2 L26,13 C26,13.5522847 25.5522847,14 25,14 L1,14 C0.44771525,14 0,13.5522847 0,13 L0,2 C0,0.8954305 0.8954305,0 2,0 Z M3,2 C2.44771525,2 2,2.44771525 2,3 L2,7 L8,7 L8,2 L3,2 Z M10,2 L10,7 L16,7 L16,2 L10,2 Z M18,2 L18,7 L24,7 L24,3 C24,2.44771525 23.5522847,2 23,2 L18,2 Z" id="Status" fill="#23B15E"></path>
    </g>
</svg>