<?xml version="1.0" encoding="UTF-8"?>
<svg width="333px" height="333px" viewBox="0 0 333 333" version="1.1" xmlns="http://www.w3.org/2000/svg" xmlns:xlink="http://www.w3.org/1999/xlink">
    <!-- Generator: Sketch 51.3 (57544) - http://www.bohemiancoding.com/sketch -->
    <title>Bike Share</title>
    <desc>Created with Sketch.</desc>
    <defs></defs>
    <g id="Export" stroke="none" stroke-width="1" fill="none" fill-rule="evenodd">
        <g id="Bike-Share" fill-rule="nonzero">
            <circle id="Oval" fill="#5B2B82" cx="166.2" cy="166.2" r="166.2"></circle>
            <g id="Group" transform="translate(220.000000, 105.000000)" fill="#FFFFFF">
                <path d="M19.9,1.2 C15.6,0.6 11.2,0.6 6.8,0.7 L3.6,0.7 C1.5,0.7 0.7,2.2 0.4,3.5 C0.2,4.4 0.1,6.2 1.9,7.1 C2.8,7.6 4.1,7.8 5.6,7.7 C6.7,7.6 7.9,7.6 9,7.6 C29.4,7.6 46,15.6 58.6,31.6 C67.9,43.5 72.2,57.6 71.3,73.6 C71.2,74.9 71.5,76.2 71.9,77 C72.9,78.8 74.5,78.7 75.8,78.4 C77,78.1 78.3,77.4 78.5,74.6 C79.9,54.2 73.7,36.2 60.7,22.5 C47.9,10.1 35,3.3 19.9,1.2" id="Shape"></path>
                <path d="M28.5,24.2 C21.2,21.1 13.5,19.9 5.6,20.6 C3.8,20.8 2.4,21.9 2.1,23.6 C1.8,25.3 2.4,26.6 3.9,27.4 C4.6,27.7 5.6,27.9 7,27.8 C7.8,27.8 8.5,27.8 9.2,27.8 C20.5,27.8 30.3,31.6 38.2,39.2 C47.3,47.9 51.6,58.9 51,72 C50.9,73.3 51.3,74.7 51.9,75.7 C53,77.4 54.7,77 55.7,76.7 C57.3,76.1 58.1,75 58.2,72.9 C59.1,58.2 54.3,45.4 44.1,34.8 C39.8,30.3 34.5,26.7 28.5,24.2" id="Shape"></path>
                <path d="M7.9,40.7 C6.8,40.8 5.3,41.6 4.3,42.6 C3.1,43.8 4,45.7 4.3,46.2 C5.1,47.5 6.2,48 8.1,48 C8.5,48 8.9,48 9.3,48 C17.1,48 23.2,51.3 27.5,57.7 C30.1,61.5 31.2,66.1 30.9,71.1 C30.8,73 31.5,74.2 33.1,74.9 C34.1,75.3 35.3,75.5 37.3,73.9 C37.3,73.8 37.4,73.7 37.5,73.5 C37.7,73 38.1,72.3 38.1,71.7 C38.3,69.6 38.2,67.5 38,65.6 C36.4,50.9 22.6,39.5 7.9,40.7" id="Shape"></path>
            </g>
            <g id="Group" transform="translate(43.000000, 79.000000)" fill="#FFFFFF">
                <path d="M103.1,15.9 C103.1,7.5 109.9,0.8 118.2,0.8 C126.5,0.8 133.3,7.5 133.3,15.9 C133.3,24.2 126.5,31 118.2,31 C109.9,31 103.1,24.2 103.1,15.9" id="Shape"></path>
                <path d="M118.8,67.6 C116.6,67.7 114.3,66.5 112.5,63.8 L102.8,48.5 L82.5,68.5 L101.3,78.3 C109,82 107.9,88.8 107.9,88.8 L107.9,131.3 C107.9,136.1 104,140 99.2,140 C94.3,140 90.5,136.1 90.5,131.3 L90.5,97.3 L58,79.3 C54.1,77.1 51.5,73 51.5,68.2 C51.5,64.9 52.7,62 54.7,59.7 L86.6,27.8 C90.5,23.3 96.1,24 96.1,24 C102.8,24 106.3,29.8 106.3,29.8 L122.9,55.8 L148,55.8 C157,55.8 157,67.6 148,67.6 L118.8,67.6 Z" id="Shape"></path>
                <path d="M42.2,94 C60.3,94 75,108.7 75,126.8 C75,144.9 60.3,159.6 42.2,159.6 C24.1,159.6 9.4,144.9 9.4,126.8 C9.4,108.7 24.1,94 42.2,94 M42.2,84.8 C19,84.8 0.2,103.6 0.2,126.8 C0.2,150 19,168.8 42.2,168.8 C65.4,168.8 84.2,150 84.2,126.8 C84.2,103.6 65.4,84.8 42.2,84.8" id="Shape"></path>
                <path d="M155.9,94 C174,94 188.7,108.7 188.7,126.8 C188.7,144.9 174,159.6 155.9,159.6 C137.8,159.6 123.1,144.9 123.1,126.8 C123.1,108.7 137.8,94 155.9,94 M155.9,84.8 C132.7,84.8 113.9,103.6 113.9,126.8 C113.9,150 132.7,168.8 155.9,168.8 C179.1,168.8 197.9,150 197.9,126.8 C197.9,103.6 179.1,84.8 155.9,84.8" id="Shape"></path>
                <path d="M159.9,133 L151.2,133 L151.2,147.7 L143.8,147.7 L143.8,106.5 L159.9,106.5 C169.4,106.5 174.4,111.8 174.4,119.7 C174.5,127.7 169.4,133 159.9,133 Z M159.7,113.2 L151.3,113.2 L151.3,126.5 L159.7,126.5 C164.7,126.5 167,123.8 167,119.9 C167,116 164.7,113.2 159.7,113.2 Z" id="Shape"></path>
            </g>
        </g>
    </g>
</svg>