<?xml version="1.0" encoding="UTF-8"?>
<svg xmlns="http://www.w3.org/2000/svg" xmlns:xlink="http://www.w3.org/1999/xlink" width="24pt" height="24pt" viewBox="0 0 24 24" version="1.1">
<defs>
<clipPath id="clip1">
  <path d="M 1 2 L 23 2 L 23 23 L 1 23 Z M 1 2 "/>
</clipPath>
<clipPath id="clip2">
  <path d="M 23 2 L 23 3.5 L 15 5.898438 L 15 7.398438 L 13 8 L 13 13 L 17.734375 13 C 18.234375 13 18.664063 13.367188 18.730469 13.859375 C 18.90625 15.21875 19 16.597656 19 18 C 19 19.402344 18.90625 20.78125 18.730469 22.140625 C 18.664063 22.632813 18.234375 23 17.734375 23 L 6.265625 23 C 5.765625 23 5.335938 22.632813 5.269531 22.140625 C 5.09375 20.78125 5 19.402344 5 18 C 5 16.597656 5.09375 15.21875 5.269531 13.859375 C 5.335938 13.367188 5.765625 13 6.265625 13 L 11 13 L 11 8.601563 L 9 9.199219 L 9 7.699219 L 1 10.101563 L 1 8.601563 L 9 6.199219 L 9 5.199219 L 15 3.398438 L 15 4.398438 Z M 17 15 L 13 15 L 13 19 L 17 19 Z M 11 15 L 7 15 L 7 19 L 11 19 Z M 11 15 "/>
</clipPath>
</defs>
<g id="surface1">
<g clip-path="url(#clip1)" clip-rule="nonzero">
<g clip-path="url(#clip2)" clip-rule="evenodd">
<rect x="0" y="0" width="24" height="24" style="fill:rgb(12.940979%,16.470337%,19.999695%);fill-opacity:1;stroke:none;"/>
</g>
</g>
</g>
</svg>
