<svg width="24" height="24" viewBox="0 0 24 24" fill="none" xmlns="http://www.w3.org/2000/svg">
    <path fill-rule="evenodd" clip-rule="evenodd" d="M3 21C3 19.896 3.896 19 5 19C6.104 19 7 19.896 7 21C7 22.104 6.104 23 5 23C3.896 23 3 22.104 3 21ZM19 21C19 19.896 19.896 19 21 19C22.104 19 23 19.896 23 21C23 22.104 22.104 23 21 23C19.896 23 19 22.104 19 21ZM18 3H22C22.5523 3 23 3.44772 23 4C23 4.55228 22.5523 5 22 5H20.2136L21.56 17.04C21.38 17.01 21.19 17 21 17C20.5 17 20.02 17.09 19.58 17.27C18.07 17.84 17 19.29 17 21H9C9 18.791 7.209 17 5 17C4.448 17 4 16.553 4 16C4 15.447 4.448 15 5 15C7.611 15 9.827 16.671 10.651 19H15.346C15.99 17.183 17.483 15.766 19.35 15.23L18 3ZM8.40135 5.5H7.5L7 4.75H6L5.5 5.5H4.75L4.25 4.75H3.5L3 5.5H2L0.5 4L2 2.5H8.40135C8.92006 1.6033 9.88958 1 11 1C12.6569 1 14 2.34315 14 4C14 5.65685 12.6569 7 11 7C9.88958 7 8.92006 6.3967 8.40135 5.5ZM12.25 4.75C12.6642 4.75 13 4.41421 13 4C13 3.58579 12.6642 3.25 12.25 3.25C11.8358 3.25 11.5 3.58579 11.5 4C11.5 4.41421 11.8358 4.75 12.25 4.75Z" fill="black"/>
</svg>