<?xml version="1.0" encoding="utf-8"?>
<!-- Generator: Adobe Illustrator 22.1.0, SVG Export Plug-In . SVG Version: 6.00 Build 0)  -->
<svg xmlns="http://www.w3.org/2000/svg" xmlns:xlink="http://www.w3.org/1999/xlink" version="1.1" id="Layer_2" x="0px" y="0px" viewBox="297 67 140 90" style="enable-background:new 0 0 850.4 226.8;" xml:space="preserve">
<style type="text/css">
	.st0{fill:#231F20;}
	.st1{fill:url(#SVGID_1_);}
	.st2{fill:url(#SVGID_2_);}
	.st3{fill:url(#SVGID_3_);}
	.st4{fill:url(#SVGID_4_);}
	.st5{fill:url(#SVGID_5_);}
</style>
<g>

	<g>

		<g>
			<radialGradient id="SVGID_1_" cx="299.8593" cy="83.1248" r="141.941" gradientUnits="userSpaceOnUse">
				<stop offset="0" style="stop-color:#006FBA"/>
				<stop offset="0.5" style="stop-color:#4F2984"/>
				<stop offset="1" style="stop-color:#DA1A32"/>
			</radialGradient>
			<path class="st1" d="M378.8,76.4h-71l-7.3,7.3h69.9C372.8,80.9,375.6,78.5,378.8,76.4z"/>
			<radialGradient id="SVGID_2_" cx="300.0035" cy="82.9767" r="142.0778" gradientUnits="userSpaceOnUse">
				<stop offset="0" style="stop-color:#006FBA"/>
				<stop offset="0.5" style="stop-color:#4F2984"/>
				<stop offset="1" style="stop-color:#DA1A32"/>
			</radialGradient>
			<path class="st2" d="M388.4,113.2c0-8.1,6.5-14.7,14.6-14.7h7.3l7.4-7.5h-14.7c-12.2,0-22,9.8-22,22c0,12.2,9.2,22.8,21.9,22.8     h29.3l-7.3-7.4l-22-0.1C394.9,128.4,388.4,121.3,388.4,113.2z"/>
			<radialGradient id="SVGID_3_" cx="300.0122" cy="83.3796" r="141.9412" gradientUnits="userSpaceOnUse">
				<stop offset="0" style="stop-color:#006FBA"/>
				<stop offset="0.5" style="stop-color:#4F2984"/>
				<stop offset="1" style="stop-color:#DA1A32"/>
			</radialGradient>
			<polygon class="st3" points="307.9,98.7 329.9,98.7 329.9,142.7 337.2,150 337.2,91.3 300.6,91.3    "/>
			<radialGradient id="SVGID_4_" cx="299.9104" cy="83.3796" r="141.941" gradientUnits="userSpaceOnUse">
				<stop offset="0" style="stop-color:#006FBA"/>
				<stop offset="0.5" style="stop-color:#4F2984"/>
				<stop offset="1" style="stop-color:#DA1A32"/>
			</radialGradient>
			<path class="st4" d="M344.5,150l7.3-7.3v-44h9.8c0.9-2.5,2-5,3.4-7.3h-20.6V150z"/>
			<radialGradient id="SVGID_5_" cx="300.3479" cy="83.1864" r="141.3938" gradientUnits="userSpaceOnUse">
				<stop offset="0" style="stop-color:#006FBA"/>
				<stop offset="0.5" style="stop-color:#4F2984"/>
				<stop offset="1" style="stop-color:#DA1A32"/>
			</radialGradient>
			<path class="st5" d="M373.9,113.1c0-16.2,12.9-29.3,29.1-29.3h14.7l-7.3-7.3H403c-20.2,0-36.5,16.4-36.5,36.7     c0,20.2,16.1,36.8,36.3,36.8h22l7.3-7.3h-29.3C386.7,142.6,373.9,129.3,373.9,113.1z"/>
		</g>
	</g>
</g>
</svg>