<?xml version="1.0" encoding="utf-8"?>
<!DOCTYPE svg PUBLIC "-//W3C//DTD SVG 1.1//EN" "http://www.w3.org/Graphics/SVG/1.1/DTD/svg11.dtd">
<svg version="1.1" xmlns="http://www.w3.org/2000/svg" xmlns:xlink="http://www.w3.org/1999/xlink" x="0px" y="0px" viewBox="0 0 1000 1000" enable-background="new 0 0 1000 1000" xml:space="preserve">
<metadata> Svg Vector Icons : http://www.onlinewebfonts.com/icon </metadata>
<g><g transform="translate(0.000000,511.000000) scale(0.100000,-0.100000)"><path d="M4819.9,5002c-116.7-32.2-144.9-106.6-144.9-402.4c0-142.8-4-257.5-8-257.5c-4,0-38.2,12.1-74.4,28.2c-104.6,42.3-299.8,58.3-432.6,34.2c-356.1-66.4-617.6-346.1-678-724.3c-18.1-122.7-16.1-144.9,18.1-205.2c22.1-38.2,74.4-84.5,114.7-106.6c68.4-32.2,84.5-34.2,148.9-10.1c96.6,38.2,142.8,106.6,167,245.4c36.2,225.3,177,356.1,380.2,356.1c124.7,0,165-18.1,279.6-126.7l84.5-82.5v-537.2v-535.2l-84.5,84.5c-150.9,148.9-501,243.4-830.9,227.3c-448.6-24.1-826.9-279.6-1028.1-694.1c-84.5-175-134.8-398.3-122.7-547.2c6-92.5,18.1-118.7,72.4-167c72.4-64.4,169-74.4,261.5-26.2c68.4,34.2,90.5,90.5,122.7,291.7c12.1,82.5,38.2,185.1,58.3,231.4c58.3,128.8,189.1,275.6,311.8,350.1c323.9,195.1,696.1,144.9,955.6-128.8c78.5-82.5,130.8-118.7,195.2-134.8l88.5-24.1l-4-957.7l-6-955.7L3301,217.7l-1366.1-10.1l-58.3-66.4c-54.3-60.4-58.3-78.4-58.3-217.3c0-82.5,10.1-237.4,22.1-346c167-1543.1,1154.8-2581.3,2633.6-2768.4l191.1-24.1l6-557.3l4-557.3h-420.5c-229.4,0-446.6-6-482.9-12.1c-138.8-28.2-219.3-191.1-154.9-323.9c62.4-130.8,40.2-128.7,1350-122.7l1177,6l62.4,62.4c114.7,114.7,76.5,299.8-72.4,362.1c-52.3,22.1-179.1,28.2-543.2,28.2h-472.8v549.2v549.2l245.5,26.2c1412.4,144.8,2476.6,1116.6,2754.3,2510.8c24.1,126.7,46.3,336,52.3,503L8181.8,95l-62.4,60.4l-60.4,62.4H6588.4H5117.7v1005.9c0,553.3,8.1,1005.9,16.1,1005.9c10.1,0,58.3,40.2,110.7,90.5c484.9,464.7,1267.5,171,1343.9-501c8.1-82.5,26.2-169,38.2-193.2c50.3-92.5,229.4-130.8,319.9-68.4c84.5,60.4,106.6,150.9,82.5,334c-84.5,613.6-565.3,1066.3-1166.9,1096.5c-163,8-207.2,4-301.8-34.2c-60.4-24.2-185.1-68.4-275.6-100.6l-167-58.3v571.4c0,645.8-16.1,593.5,183.1,593.5c235.4,0,420.5-169,420.5-382.3c0-114.7,60.4-189.1,185.1-227.3c18.1-6,66.4-2,106.6,8c281.7,78.5,142.8,663.9-215.3,903.3c-169,112.7-295.7,150.9-503,150.9h-173l-8.1,235.4c-6,221.3-10.1,239.4-56.3,287.7C4993,5000,4904.4,5024.1,4819.9,5002z M3453.9-1019.6c98.6-106.6,233.4-229.4,299.8-273.6c255.5-175,569.4-275.6,909.4-295.7c183.1-10.1,203.2-14.1,265.6-68.4c120.7-106.6,104.6-283.7-36.2-366.2c-54.3-32.2-90.5-36.2-265.6-26.2c-535.2,30.2-999.9,215.3-1343.9,537.2c-221.3,203.2-338,364.2-338,460.7c2,122.7,116.7,223.3,261.5,223.3C3268.8-828.5,3294.9-848.6,3453.9-1019.6z"/></g></g>
</svg>