<svg width="24" height="24" viewBox="0 0 24 24" fill="none" xmlns="http://www.w3.org/2000/svg">
<path fill-rule="evenodd" clip-rule="evenodd" d="M2.87999 7.5C2.61489 7.5 2.39999 7.72386 2.39999 8V16C2.39999 16.2761 2.61489 16.5 2.87999 16.5H19.2C19.4651 16.5 19.68 16.2761 19.68 16V13.5H21.6V10.5H19.68V8C19.68 7.72386 19.4651 7.5 19.2 7.5H2.87999ZM2.87999 6H19.2C20.2604 6 21.12 6.89543 21.12 8V9H22.08C22.6102 9 23.04 9.44772 23.04 10V14C23.04 14.5523 22.6102 15 22.08 15H21.12V16C21.12 17.1046 20.2604 18 19.2 18H2.87999C1.8196 18 0.959991 17.1046 0.959991 16V8C0.959991 6.89543 1.8196 6 2.87999 6ZM4.31999 9H6.71999V15H4.31999C4.05489 15 3.83999 14.7761 3.83999 14.5V9.5C3.83999 9.22386 4.05489 9 4.31999 9ZM7.67999 9H10.56V15H7.67999V9Z" fill="black"/>
</svg>
