<svg width="24" height="24" viewBox="0 0 24 24" fill="none" xmlns="http://www.w3.org/2000/svg">
<path fill-rule="evenodd" clip-rule="evenodd" d="M2.88001 7.5C2.61491 7.5 2.40001 7.72386 2.40001 8V16C2.40001 16.2761 2.61491 16.5 2.88001 16.5H19.2C19.4651 16.5 19.68 16.2761 19.68 16V13.5H21.6V10.5H19.68V8C19.68 7.72386 19.4651 7.5 19.2 7.5H2.88001ZM2.88001 6H19.2C20.2604 6 21.12 6.89543 21.12 8V9H22.08C22.6102 9 23.04 9.44772 23.04 10V14C23.04 14.5523 22.6102 15 22.08 15H21.12V16C21.12 17.1046 20.2604 18 19.2 18H2.88001C1.81962 18 0.960007 17.1046 0.960007 16V8C0.960007 6.89543 1.81962 6 2.88001 6Z" fill="black"/>
</svg>
