<?xml version="1.0" encoding="UTF-8" standalone="no"?>
<svg width="24px" height="24px" viewBox="0 0 24 24" version="1.1" xmlns="http://www.w3.org/2000/svg">
    <desc>Created with Sketch.</desc>
    <defs></defs>
    <g id="Assets" stroke="none" stroke-width="1" fill="none" fill-rule="evenodd">
        <g transform="translate(-294.000000, -34.000000)" id="City">
            <g transform="translate(294.000000, 34.000000)">
                <path d="M13,4 L8,2 L3,4 L3,22 L13,22 L13,4 Z M7,20 L5,20 L5,18 L7,18 L7,20 L7,20 Z M7,16 L5,16 L5,14 L7,14 L7,16 L7,16 Z M7,12 L5,12 L5,10 L7,10 L7,12 L7,12 Z M7,8 L5,8 L5,6 L7,6 L7,8 L7,8 Z M11,20 L9,20 L9,18 L11,18 L11,20 L11,20 Z M11,16 L9,16 L9,14 L11,14 L11,16 L11,16 Z M11,12 L9,12 L9,10 L11,10 L11,12 L11,12 Z M11,8 L9,8 L9,6 L11,6 L11,8 Z M21,8 L18,6 L15,8 L15,22 L21,22 L21,8 Z M19,10 L17,10 L17,12 L19,12 L19,10 Z M19,14 L17,14 L17,16 L19,16 L19,14 Z M19,18 L17,18 L17,20 L19,20 L19,18 Z" fill="#212121"></path>
            </g>
        </g>
    </g>
</svg>