<svg width="24" height="24" viewBox="0 0 24 24" fill="none" xmlns="http://www.w3.org/2000/svg">
<path fill-rule="evenodd" clip-rule="evenodd" d="M6 4H18C19.1046 4 20 4.89543 20 6V18C20 19.1046 19.1046 20 18 20H6C4.89543 20 4 19.1046 4 18V6C4 4.89543 4.89543 4 6 4ZM14.5 10.5607V13.25C14.5 13.6642 14.8358 14 15.25 14C15.6642 14 16 13.6642 16 13.25V8H10.75C10.3358 8 10 8.33579 10 8.75C10 9.16421 10.3358 9.5 10.75 9.5H13.4393L8.22183 14.7175C7.92893 15.0104 7.92893 15.4853 8.22183 15.7782C8.51472 16.0711 8.98959 16.0711 9.28249 15.7782L14.5 10.5607Z" fill="black"/>
</svg>