<svg width="24" height="24" viewBox="0 0 24 24" fill="none" xmlns="http://www.w3.org/2000/svg">
<g id="what3word">
<path id="Combined Shape" fill-rule="evenodd" clip-rule="evenodd" d="M2 2V22H22V2H2ZM20.746 20.7515H3.24818V3.24854H20.746V20.7515ZM14.6114 15.7143C14.5323 15.9211 14.3408 16.0636 14.12 16.08H13.8743C13.7277 16.0331 13.6062 15.929 13.5374 15.7913C13.4685 15.6536 13.4581 15.494 13.5086 15.3486L15.96 8C16.061 7.69545 16.3897 7.53044 16.6943 7.63143C16.9988 7.73242 17.1638 8.06117 17.0629 8.36571L14.6114 15.7143ZM6.89714 16.08C7.11798 16.0636 7.30946 15.9211 7.38857 15.7143L9.83429 8.36571C9.89579 8.22086 9.89068 8.05632 9.8203 7.91556C9.74992 7.77481 9.62136 7.67199 9.46857 7.63429C9.32372 7.57278 9.15918 7.57789 9.01842 7.64827C8.87766 7.71865 8.77485 7.84721 8.73714 8L6.28571 15.3486C6.23529 15.494 6.24567 15.6536 6.31451 15.7913C6.38335 15.929 6.50482 16.0331 6.65143 16.08H6.89714ZM10.4514 16.08H10.2057C10.0581 16.0343 9.93523 15.9307 9.86524 15.7929C9.79526 15.6551 9.78409 15.4948 9.83429 15.3486L12.2857 8C12.3867 7.69545 12.7155 7.53044 13.02 7.63143C13.3245 7.73242 13.4896 8.06117 13.3886 8.36571L10.9371 15.7143C10.9371 15.8343 10.8171 16.08 10.4514 16.08Z" fill="#E11F26"/>
</g>
</svg>
