<?xml version="1.0" encoding="UTF-8" standalone="no"?>
<svg width="20px" height="20px" viewBox="0 0 20 20" version="1.1" xmlns="http://www.w3.org/2000/svg" xmlns:xlink="http://www.w3.org/1999/xlink">
    <!-- Generator: Sketch 3.8.3 (29802) - http://www.bohemiancoding.com/sketch -->
    <title>icon-website</title>
    <desc>Created with Sketch.</desc>
    <defs></defs>
    <g id="New-Detail-View" stroke="none" stroke-width="1" fill="none" fill-rule="evenodd">
        <g id="icon-website" fill="#000000">
            <path d="M17.0693878,2.93061224 C15.1836735,1.04081633 12.6693878,0 10,0 C7.33061224,0 4.81632653,1.04081633 2.93061224,2.93061224 C1.04489796,4.82040816 0,7.33061224 0,10 C0,12.6693878 1.04081633,15.1836735 2.93061224,17.0693878 C4.82040816,18.955102 7.33061224,20 10,20 C12.6693878,20 15.1836735,18.9591837 17.0693878,17.0693878 C18.955102,15.1795918 20,12.6693878 20,10 C20,7.33061224 18.9591837,4.81632653 17.0693878,2.93061224 L17.0693878,2.93061224 Z M19.0938776,9.55102041 L15.2163265,9.55102041 C15.1795918,8.00816327 14.9632653,6.52244898 14.5836735,5.20408163 C15.322449,4.8244898 16.0122449,4.34693878 16.644898,3.78367347 C18.0734694,5.31020408 18.9836735,7.32653061 19.0938776,9.55102041 L19.0938776,9.55102041 Z M10.4489796,10.4489796 L14.322449,10.4489796 C14.2897959,11.8693878 14.0938776,13.2285714 13.755102,14.444898 C12.7102041,14.0244898 11.5959184,13.7795918 10.4489796,13.7265306 L10.4489796,10.4489796 L10.4489796,10.4489796 Z M16,3.15918367 C15.477551,3.62040816 14.9061224,4.0122449 14.3020408,4.33877551 C14.1469388,3.90612245 13.9714286,3.49795918 13.7755102,3.11428571 C13.3877551,2.34693878 12.9469388,1.71836735 12.4612245,1.23673469 C13.7877551,1.60816327 14.9918367,2.27346939 16,3.15918367 L16,3.15918367 Z M10.4489796,1.03673469 C11.3836735,1.24489796 12.2653061,2.10612245 12.9755102,3.51020408 C13.1673469,3.88979592 13.3387755,4.29387755 13.4897959,4.72244898 C12.5306122,5.11836735 11.5061224,5.35102041 10.4489796,5.40408163 L10.4489796,1.03673469 L10.4489796,1.03673469 Z M13.7591837,5.58367347 C14.0938776,6.79183673 14.2857143,8.14285714 14.3183673,9.55510204 L10.4489796,9.55510204 L10.4489796,6.30612245 C11.6,6.25306122 12.7142857,6.00408163 13.7591837,5.58367347 L13.7591837,5.58367347 Z M9.55102041,9.55102041 L5.67755102,9.55102041 C5.71020408,8.13877551 5.90204082,6.7877551 6.23673469,5.57959184 C7.28163265,6.00408163 8.4,6.24897959 9.54693878,6.29795918 L9.54693878,9.55102041 L9.55102041,9.55102041 Z M9.55510204,1.03673469 L9.55510204,5.40408163 C8.49795918,5.35102041 7.46938776,5.11836735 6.51428571,4.72244898 C6.66530612,4.29387755 6.83673469,3.88979592 7.02857143,3.51020408 C7.73877551,2.10612245 8.62040816,1.24489796 9.55510204,1.03673469 L9.55510204,1.03673469 Z M7.54285714,1.23673469 C7.05714286,1.71836735 6.61632653,2.35102041 6.22857143,3.11428571 C6.03673469,3.49795918 5.86122449,3.90612245 5.70204082,4.33877551 C5.09795918,4.0122449 4.53061224,3.62040816 4.00408163,3.15918367 C5.0122449,2.27346939 6.21632653,1.60816327 7.54285714,1.23673469 L7.54285714,1.23673469 Z M3.35918367,3.78367347 C3.99183673,4.34693878 4.68163265,4.82040816 5.42040816,5.20408163 C5.04081633,6.52653061 4.82040816,8.00816327 4.7877551,9.55102041 L0.910204082,9.55102041 C1.02040816,7.32653061 1.93061224,5.31020408 3.35918367,3.78367347 L3.35918367,3.78367347 Z M0.910204082,10.4489796 L4.7877551,10.4489796 C4.8244898,12.0040816 5.04489796,13.4938776 5.42857143,14.8204082 C4.69387755,15.2 4.00408163,15.6693878 3.3755102,16.2326531 C1.93469388,14.7020408 1.02040816,12.6816327 0.910204082,10.4489796 L0.910204082,10.4489796 Z M4.02040816,16.8571429 C4.54285714,16.4 5.11020408,16.0081633 5.71020408,15.6857143 C5.86530612,16.1061224 6.03673469,16.5102041 6.22857143,16.8857143 C6.61632653,17.6530612 7.05714286,18.2816327 7.54285714,18.7673469 C6.2244898,18.3959184 5.0244898,17.7346939 4.02040816,16.8571429 L4.02040816,16.8571429 Z M9.55510204,18.9632653 C8.62040816,18.755102 7.73877551,17.8938776 7.02857143,16.4897959 C6.84081633,16.1183673 6.67346939,15.722449 6.52244898,15.3020408 C7.47755102,14.9061224 8.50204082,14.6734694 9.55510204,14.6244898 L9.55510204,18.9632653 L9.55510204,18.9632653 Z M6.24897959,14.444898 C5.91020408,13.2285714 5.71428571,11.8693878 5.68163265,10.4489796 L9.55510204,10.4489796 L9.55510204,13.7265306 C8.40816327,13.7755102 7.29387755,14.0204082 6.24897959,14.444898 L6.24897959,14.444898 Z M10.4530612,18.9632653 L10.4530612,14.6244898 C11.5061224,14.677551 12.5306122,14.9061224 13.4857143,15.3020408 C13.3346939,15.722449 13.1673469,16.1183673 12.9795918,16.4897959 C12.2693878,17.8938776 11.3877551,18.755102 10.4530612,18.9632653 L10.4530612,18.9632653 Z M12.4653061,18.7632653 C12.9510204,18.2816327 13.3918367,17.6489796 13.7795918,16.8816327 C13.9714286,16.5061224 14.1428571,16.1020408 14.2979592,15.6816327 C14.8979592,16.0040816 15.4653061,16.3959184 15.9877551,16.8530612 C14.9836735,17.7346939 13.7836735,18.3959184 12.4653061,18.7632653 L12.4653061,18.7632653 Z M16.6367347,16.2326531 C16.0081633,15.6734694 15.3183673,15.2 14.5836735,14.8204082 C14.9673469,13.4938776 15.1877551,12 15.2244898,10.4489796 L19.1020408,10.4489796 C18.9877551,12.6816327 18.0734694,14.7020408 16.6367347,16.2326531 L16.6367347,16.2326531 Z" id="Shape"></path>
        </g>
    </g>
</svg>