<?xml version="1.0" encoding="iso-8859-1"?>
<svg version="1.1" id="Layer_1"
	xmlns="http://www.w3.org/2000/svg"
	xmlns:xlink="http://www.w3.org/1999/xlink" x="0px" y="0px" viewBox="-20 80 550 350" style="enable-background:new 0 0 112 512;" xml:space="preserve">
	<g>
		<g>
			<path d="M476,92H36c-19.884,0-36,16.116-36,36v256c0,19.884,16.116,36,36,36h440c19.884,0,36-16.116,36-36V128
			C512,108.116,495.884,92,476,92z M136,352c0,2.212-1.788,4-4,4H44c-2.212,0-4-1.788-4-4v-28c0-2.212,1.788-4,4-4h88
			c2.212,0,4,1.788,4,4V352z M248,352c0,2.212-1.788,4-4,4h-88c-2.212,0-4-1.788-4-4v-28c0-2.212,1.788-4,4-4h88
			c2.212,0,4,1.788,4,4V352z M360,352c0,2.212-1.788,4-4,4h-88c-2.212,0-4-1.788-4-4v-28c0-2.212,1.788-4,4-4h88
			c2.212,0,4,1.788,4,4V352z M472,352c0,2.212-1.788,4-4,4h-88c-2.212,0-4-1.788-4-4v-28c0-2.212,1.788-4,4-4h88
			c2.212,0,4,1.788,4,4V352z M488,184H24v-56h464V184z"/>
		</g>
	</g>
</svg>
