<?xml version="1.0" encoding="UTF-8"?>
<svg width="23px" height="23px" viewBox="0 0 23 23" version="1.1" xmlns="http://www.w3.org/2000/svg" xmlns:xlink="http://www.w3.org/1999/xlink">
    <!-- Generator: Sketch 51.1 (57501) - http://www.bohemiancoding.com/sketch -->
    <title>Shape</title>
    <desc>Created with Sketch.</desc>
    <defs></defs>
    <g stroke="none" stroke-width="1" fill="none" fill-rule="evenodd">
        <g transform="translate(-30.000000, -945.000000)" fill="#676767" fill-rule="nonzero">
            <g id="np_information_982777_000000" transform="translate(30.000000, 945.000000)">
                <path d="M11.5,0 C5.175,0 0,5.175 0,11.5 C0,17.825 5.175,23 11.5,23 C17.825,23 23,17.825 23,11.5 C23,5.175 17.825,0 11.5,0 Z M11.5,21.4666667 C6.01795,21.4666667 1.53333333,16.98205 1.53333333,11.5 C1.53333333,6.01795 6.01795,1.53333333 11.5,1.53333333 C16.98205,1.53333333 21.4666667,6.01795 21.4666667,11.5 C21.4666667,16.98205 16.98205,21.4666667 11.5,21.4666667 Z M10.7333333,8.81666667 L12.2666667,8.81666667 L12.2666667,18.4 L10.7333333,18.4 L10.7333333,8.81666667 Z M12.65,6.13333333 C12.65,6.78469333 12.15136,7.28333333 11.5,7.28333333 C10.84864,7.28333333 10.35,6.78469333 10.35,6.13333333 C10.35,5.48197333 10.84864,4.98333333 11.5,4.98333333 C12.15136,4.98333333 12.65,5.48197333 12.65,6.13333333 Z" id="Shape"></path>
            </g>
        </g>
    </g>
</svg>