<?xml version="1.0" encoding="UTF-8"?>
<svg width="16px" height="16px" viewBox="0 0 16 16" version="1.1" xmlns="http://www.w3.org/2000/svg" xmlns:xlink="http://www.w3.org/1999/xlink">
    <g stroke="none" stroke-width="1" fill="none" fill-rule="evenodd">
        <g transform="translate(-425.000000, -246.000000)" fill="#FFFFFF" fill-rule="nonzero">
            <g id="Group-3" transform="translate(418.000000, 239.000000)">
                <g id="np_swap_1259600_000000" transform="translate(15.000000, 15.000000) rotate(90.000000) translate(-15.000000, -15.000000) translate(7.000000, 7.000000)">
                    <path d="M4.62547418,4.56322174 L12.3686954,4.56322174 L10.40084,6.54202221 C10.1298588,6.8145106 10.1298588,7.25545882 10.40084,7.52893651 C10.5358413,7.6646886 10.7132176,7.73305929 10.8915678,7.73305929 C11.0689391,7.73305929 11.2463004,7.6646886 11.3822955,7.52893651 L14.5335684,4.36013646 C14.5660876,4.32743633 14.594664,4.2927576 14.6202839,4.25510337 C14.6261962,4.24519466 14.6311231,4.23429487 14.6370357,4.22438691 C14.6537874,4.19565159 14.6715251,4.16691626 14.684335,4.13619727 C14.6902476,4.1213342 14.6932036,4.10548081 14.6981308,4.09061596 C14.7069994,4.06286994 14.7178386,4.03512645 14.7237507,4.00539929 C14.7326192,3.95981798 14.7375464,3.91423668 14.7375464,3.86766607 C14.7375464,3.82109546 14.7326192,3.77452232 14.7237507,3.72993285 C14.7178381,3.70020569 14.7079842,3.6724622 14.6981308,3.64471618 C14.6932036,3.6298531 14.6902476,3.61399972 14.684335,3.59913487 C14.6715248,3.56841841 14.6547723,3.53968055 14.6370357,3.51094523 C14.6311231,3.50103626 14.6271817,3.48914565 14.6202839,3.48022877 C14.594664,3.44257454 14.5660876,3.40690397 14.5335684,3.37519568 L11.3822955,0.204366295 C11.1113143,-0.0681220985 10.6728051,-0.0681220985 10.40084,0.204366295 C10.1298588,0.476854689 10.1298588,0.917802907 10.40084,1.1912806 L12.3677116,3.16909177 L4.6254994,3.16810095 C2.07536996,3.16810095 0,5.25491255 0,7.81932716 C0,8.20477318 0.310409959,8.51690962 0.693724005,8.51690962 C1.07703805,8.51690962 1.38744801,8.20477318 1.38744801,7.81932716 C1.38744801,6.02385136 2.83992949,4.56326588 4.6254994,4.56326588 L4.62547418,4.56322174 Z M15.3052922,7.4824141 C14.9219781,7.4824141 14.6115682,7.79455055 14.6115682,8.17999657 C14.6115682,9.97547237 13.1590867,11.4360578 11.3735168,11.4360578 L3.63029556,11.4360578 L5.59815091,9.45725738 C5.86913212,9.18476898 5.86913212,8.74382077 5.59815091,8.47034307 C5.3271697,8.19785468 4.88866045,8.19785468 4.61669541,8.47034307 L1.46542259,11.6401578 C1.43290333,11.6728579 1.40432695,11.7075392 1.37870709,11.7451909 C1.37279479,11.7550999 1.36885318,11.7650086 1.36294063,11.774918 C1.3452035,11.8036534 1.3284512,11.8333805 1.31564127,11.8650888 C1.30972897,11.8799521 1.3067727,11.894816 1.30184575,11.9096783 C1.29297693,11.9374243 1.28213768,11.9661596 1.27622589,11.9958843 C1.26735732,12.0414656 1.26243037,12.0870469 1.26243037,12.1336175 C1.26243037,12.1801881 1.26735732,12.2267612 1.27622589,12.2713507 C1.28213844,12.3010779 1.29297768,12.3288213 1.30184575,12.3575567 C1.3067727,12.3724197 1.30972897,12.3872838 1.31564127,12.4021461 C1.3284517,12.4338544 1.34618783,12.4625898 1.36294063,12.4923169 C1.36885318,12.5022256 1.37279479,12.5121344 1.37870709,12.5220441 C1.40432695,12.5596983 1.43290333,12.5953689 1.46542259,12.6270772 L4.61669541,15.7958772 C4.75169663,15.9316293 4.92907303,16 5.10742316,16 C5.28479452,16 5.46215578,15.9316293 5.59815091,15.7958772 C5.86913212,15.5233888 5.86913212,15.0824406 5.59815091,14.8089629 L3.63127938,12.8311517 L11.3745006,12.8311517 C13.92463,12.8311517 16,10.7443401 16,8.17992554 C15.9990147,7.79447952 15.6876224,7.48234308 15.3052922,7.48234308 L15.3052922,7.4824141 Z"></path>
                </g>
            </g>
        </g>
    </g>
</svg>