<?xml version="1.0" encoding="UTF-8" standalone="no"?>
<svg width="8px" height="52px" viewBox="0 0 8 52" version="1.1" xmlns="http://www.w3.org/2000/svg" xmlns:xlink="http://www.w3.org/1999/xlink">
    <!-- Generator: Sketch 39.1 (31720) - http://www.bohemiancoding.com/sketch -->
    <title>icon-from-to</title>
    <desc>Created with Sketch.</desc>
    <defs>
        <ellipse id="path-1" cx="4" cy="48" rx="4" ry="4"></ellipse>
        <mask id="mask-2" maskUnits="objectBoundingBox" x="0" y="0" width="8" height="8" fill="white">
            <use xlink:href="#path-1"></use>
        </mask>
        <ellipse id="path-3" cx="4" cy="4" rx="4" ry="4"></ellipse>
        <mask id="mask-4" maskUnits="objectBoundingBox" x="0" y="0" width="8" height="8" fill="white">
            <use xlink:href="#path-3"></use>
        </mask>
    </defs>
    <g id="what3words" stroke="none" stroke-width="1" fill="none" fill-rule="evenodd">
        <g id="icon-from-to">
            <use id="node-end" stroke="green" fill="lightgreen" mask="url(#mask-2)" stroke-width="2" xlink:href="#path-1"></use>
            <path d="M4,30 C4.55228475,30 5,29.5522847 5,29 C5,28.4477153 4.55228475,28 4,28 C3.44771525,28 3,28.4477153 3,29 C3,29.5522847 3.44771525,30 4,30 Z M4,36 C4.55228475,36 5,35.5522847 5,35 C5,34.4477153 4.55228475,34 4,34 C3.44771525,34 3,34.4477153 3,35 C3,35.5522847 3.44771525,36 4,36 Z M4,24 C4.55228475,24 5,23.5522847 5,23 C5,22.4477153 4.55228475,22 4,22 C3.44771525,22 3,22.4477153 3,23 C3,23.5522847 3.44771525,24 4,24 Z M4,18 C4.55228475,18 5,17.5522847 5,17 C5,16.4477153 4.55228475,16 4,16 C3.44771525,16 3,16.4477153 3,17 C3,17.5522847 3.44771525,18 4,18 Z" id="Node---seperator" fill="#A4AAB3"></path>
            <use id="node-start" stroke="#808080" mask="url(#mask-4)" stroke-width="2" xlink:href="#path-3"></use>
        </g>
    </g>
</svg>