<svg height="23" viewBox="0 0 23 23" width="23" xmlns="http://www.w3.org/2000/svg"><path d="m.438 6.2085v3.417c0 .63.512 1.14 1.139 1.14v-5.696c-.627 0-1.139.511-1.139 1.139m20.5034-1.1387v5.696c.628 0 1.138-.51 1.138-1.14v-3.417c0-.628-.51-1.139-1.138-1.139m-2.2764 7.9732c0 .627-.515 1.138-1.141 1.138h-12.529c-.626 0-1.138-.511-1.138-1.138v-7.974c0-.625.512-1.139 1.138-1.139h12.529c.626 0 1.141.514 1.141 1.139zm-1.141 4.557c-.628 0-1.137-.511-1.137-1.141 0-.627.509-1.138 1.137-1.138.629 0 1.141.511 1.141 1.138 0 .63-.512 1.141-1.141 1.141zm-12.529 0c-.629 0-1.138-.511-1.138-1.141 0-.627.509-1.138 1.138-1.138.628 0 1.14.511 1.14 1.138 0 .63-.512 1.141-1.14 1.141zm4.556-15.948h3.418c.626 0 1.139.257 1.139.57s-.513.57-1.139.57h-3.418c-.624 0-1.138-.257-1.138-.57s.514-.57 1.138-.57zm6.836-1.139h-10.252c-1.884 0-3.417 1.533-3.417 3.417v13.67c0 .839.459 1.575 1.139 1.969v.877c0 .946.764 1.709 1.708 1.709.945 0 1.707-.763 1.707-1.709v-.569h7.975v.569c0 .946.765 1.709 1.709 1.709s1.709-.763 1.709-1.709v-.877c.678-.394 1.138-1.13 1.138-1.969v-13.67c0-1.884-1.534-3.417-3.416-3.417z" fill="#fff" fill-rule="evenodd"/></svg>