<?xml version="1.0" encoding="UTF-8"?>
<svg width="100px" height="100px" viewBox="0 0 100 100" version="1.1" xmlns="http://www.w3.org/2000/svg" xmlns:xlink="http://www.w3.org/1999/xlink">
    <!-- Generator: Sketch 49.3 (51167) - http://www.bohemiancoding.com/sketch -->
    <title>maneuver-start</title>
    <desc>Created with Sketch.</desc>
    <defs></defs>
    <g id="Icons" stroke="none" stroke-width="1" fill="none" fill-rule="evenodd">
        <g id="maneuver-start" fill="#000000">
            <g id="Group-4" transform="translate(21.000000, 35.000000)">
                <path d="M15,30 C6.71572875,30 0,23.2842712 0,15 C0,6.71572875 6.71572875,0 15,0 C23.2842712,0 30,6.71572875 30,15 C30,23.2842712 23.2842712,30 15,30 Z M15,23.2258065 C19.5429875,23.2258065 23.2258065,19.5429875 23.2258065,15 C23.2258065,10.4570125 19.5429875,6.77419355 15,6.77419355 C10.4570125,6.77419355 6.77419355,10.4570125 6.77419355,15 C6.77419355,19.5429875 10.4570125,23.2258065 15,23.2258065 Z" id="Combined-Shape"></path>
                <path d="M50.9826035,19.4712333 L50.9826035,25.9849919 L42.201184,25.9849919 L42.201184,19.4106316 L37.4373526,20.2735405 C36.3504699,20.4704158 35.3097785,19.7489223 35.1129032,18.6620397 C35.0182687,18.1395943 35.1352586,17.60096 35.4380902,17.1648432 L45.6592307,2.44507356 C45.9742324,1.99143015 46.5973425,1.87903887 47.0509859,2.19404061 C47.148966,2.26207626 47.2339832,2.34709339 47.3020188,2.44507356 L57.5313863,17.1766912 C58.1613898,18.083978 57.9366073,19.330198 57.0293204,19.9602015 C56.594407,20.2621975 56.0574872,20.3794095 55.536285,20.2861377 L50.9826035,19.4712333 Z" id="Combined-Shape" fill-rule="nonzero" transform="translate(46.484823, 14.000169) rotate(-270.000000) translate(-46.484823, -14.000169) "></path>
            </g>
        </g>
    </g>
</svg>