<?xml version="1.0" encoding="UTF-8"?>
<svg width="100px" height="100px" viewBox="0 0 100 100" version="1.1" xmlns="http://www.w3.org/2000/svg" xmlns:xlink="http://www.w3.org/1999/xlink">
    <!-- Generator: Sketch 49.3 (51167) - http://www.bohemiancoding.com/sketch -->
    <title>maneuver-heavy-right</title>
    <desc>Created with Sketch.</desc>
    <defs></defs>
    <g id="Icons" stroke="none" stroke-width="1" fill="none" fill-rule="evenodd">
        <g id="maneuver-heavy-right" fill="#000000">
            <path d="M57.3988384,53.3600986 L36.2863153,32.2475755 C35.895791,31.8570512 35.262626,31.8570512 34.8721018,32.2475755 C34.6845654,32.4351119 34.5792085,32.6894658 34.5792085,32.9546823 L34.5792085,79.3823387 L24,79.3823387 L24,31.5563492 C24,25.4812169 28.9248678,20.5563492 35,20.5563492 C37.9173814,20.5563492 40.7152744,21.7152744 42.7781746,23.7781746 L64.8038169,45.8038169 L68.3337381,40.6992949 C68.9619913,39.7907952 70.2077757,39.5636106 71.1162754,40.1918638 C71.5518533,40.4930782 71.8501835,40.9547532 71.9458317,41.4756271 L76.062172,63.8920827 C76.1619204,64.435285 75.80243,64.9564995 75.2592277,65.0562478 C75.139819,65.0781749 75.0174155,65.0781749 74.8980068,65.0562478 L52.4673421,60.9372984 C51.3809376,60.7378016 50.6619568,59.6953726 50.8614536,58.6089681 C50.9568356,58.089544 51.2537875,57.6289279 51.687513,57.3276285 L57.3988384,53.3600986 Z" id="Combined-Shape"></path>
        </g>
    </g>
</svg>