<?xml version="1.0" encoding="UTF-8"?>
<svg width="100px" height="100px" viewBox="0 0 100 100" version="1.1" xmlns="http://www.w3.org/2000/svg" xmlns:xlink="http://www.w3.org/1999/xlink">
    <!-- Generator: Sketch 49.3 (51167) - http://www.bohemiancoding.com/sketch -->
    <title>maneuver-quite-right</title>
    <desc>Created with Sketch.</desc>
    <defs></defs>
    <g id="Icons" stroke="none" stroke-width="1" fill="none" fill-rule="evenodd">
        <g id="maneuver-quite-right" fill="#000000">
            <path transform="scale(-1, 1) translate(-100, 0)" d="M58.095097,28.6695336 L56.9456336,22.3663635 C56.7474694,21.2797151 57.4677282,20.2381687 58.5543766,20.0400045 C59.0753674,19.9449952 59.6127723,20.0604974 60.0487193,20.3611773 L78.8102391,33.301313 C79.2648739,33.6148823 79.3792301,34.2376347 79.0656608,34.6922694 C78.9967309,34.7922089 78.9101786,34.8787612 78.8102391,34.9476912 L60.0368269,47.8960292 C59.1275574,48.5231677 57.8820526,48.2944553 57.2549141,47.3851857 C56.955071,46.9504522 56.839343,46.4147707 56.9329824,45.8950296 L58.1446845,39.1695336 L35.5,39.1695336 C32.7385763,39.1695336 30.5,41.4081099 30.5,44.1695336 L30.5,79.6695336 L20,79.6695336 L20,39.1695336 C20,33.3705437 24.7010101,28.6695336 30.5,28.6695336 L58.095097,28.6695336 Z" id="Combined-Shape"></path>
        </g>
    </g>
</svg>