<?xml version="1.0" encoding="UTF-8"?>
<svg width="100px" height="100px" viewBox="0 0 100 100" version="1.1" xmlns="http://www.w3.org/2000/svg" xmlns:xlink="http://www.w3.org/1999/xlink">
    <!-- Generator: Sketch 49.3 (51167) - http://www.bohemiancoding.com/sketch -->
    <title>maneuver-light-right</title>
    <desc>Created with Sketch.</desc>
    <defs></defs>
    <g id="Icons" stroke="none" stroke-width="1" fill="none" fill-rule="evenodd">
        <g id="maneuver-light-right" fill="#000000">
            <path transform="scale(-1, 1) translate(-100, 0)" d="M55.4309658,41.0564319 L48.9737206,52.2407086 C48.0082689,53.9129199 47.5,55.8098053 47.5,57.7407086 L47.5,79.9990389 L37,79.9990389 L37,54.9272421 C37,52.9963388 37.5082689,51.0994534 38.4737206,49.4272421 L46.3484072,35.7878848 L40.1274941,33.5647675 C39.0873469,33.1930585 38.5454706,32.0485229 38.9171796,31.0083757 C39.0953945,30.5096798 39.4641248,30.1020246 39.9424948,29.8748234 L60.5297409,20.0969384 C61.0286172,19.8599978 61.6251147,20.0723386 61.8620554,20.5712149 C61.9141405,20.6808797 61.9458209,20.7991124 61.9555462,20.9201275 L63.7824298,43.6525484 C63.8709129,44.7535682 63.0500897,45.7178507 61.94907,45.8063338 C61.4226581,45.8486388 60.9008803,45.6810214 60.497591,45.3400568 L55.4309658,41.0564319 Z" id="Combined-Shape"></path>
        </g>
    </g>
</svg>