<?xml version="1.0" encoding="UTF-8"?>
<svg width="43px" height="43px" viewBox="0 0 43 43" version="1.1" xmlns="http://www.w3.org/2000/svg" xmlns:xlink="http://www.w3.org/1999/xlink">
    <!-- Generator: Sketch 51.3 (57544) - http://www.bohemiancoding.com/sketch -->
    <title>Bike_Rack</title>
    <desc>Created with Sketch.</desc>
    <defs>
        <polygon id="path-1" points="0 0.481 42.52 0.481 42.52 42.94 0 42.94"></polygon>
    </defs>
    <g id="Bike_Rack" stroke="none" stroke-width="1" fill="none" fill-rule="evenodd">
        <g id="Group-3">
            <mask id="mask-2" fill="white">
                <use xlink:href="#path-1"></use>
            </mask>
            <g id="Clip-2"></g>
            <path d="M42.52,21.736 C42.52,33.481 32.998,43 21.26,43 C9.528,43 0,33.481 0,21.736 C0,9.99 9.528,0.481 21.26,0.481 C32.998,0.481 42.52,9.99 42.52,21.736" id="Fill-1" fill="#005391" mask="url(#mask-2)"></path>
        </g>
        <path d="M7.734,15.332 L7.734,19.606 C7.734,20.389 8.367,21.031 9.153,21.031 L9.153,13.907 C8.367,13.907 7.734,14.546 7.734,15.332" id="Fill-4" fill="#FFFFFE"></path>
        <path d="M33.361,13.907 L33.361,21.031 C34.147,21.031 34.786,20.389 34.786,19.606 L34.786,15.332 C34.786,14.546 34.147,13.907 33.361,13.907" id="Fill-5" fill="#FFFFFE"></path>
        <path d="M30.513,23.877 C30.513,24.66 29.873,25.302 29.093,25.302 L13.427,25.302 C12.646,25.302 12.002,24.66 12.002,23.877 L12.002,13.907 C12.002,13.124 12.646,12.483 13.427,12.483 L29.093,12.483 C29.873,12.483 30.513,13.124 30.513,13.907 L30.513,23.877 Z M29.093,29.571 C28.307,29.571 27.668,28.935 27.668,28.152 C27.668,27.362 28.307,26.724 29.093,26.724 C29.873,26.724 30.513,27.362 30.513,28.152 C30.513,28.935 29.873,29.571 29.093,29.571 Z M13.427,29.571 C12.641,29.571 12.002,28.935 12.002,28.152 C12.002,27.362 12.641,26.724 13.427,26.724 C14.218,26.724 14.852,27.362 14.852,28.152 C14.852,28.935 14.218,29.571 13.427,29.571 Z M19.121,9.639 L23.395,9.639 C24.18,9.639 24.819,9.958 24.819,10.348 C24.819,10.739 24.18,11.058 23.395,11.058 L19.121,11.058 C18.345,11.058 17.701,10.739 17.701,10.348 C17.701,9.958 18.345,9.639 19.121,9.639 Z M27.668,8.214 L14.852,8.214 C12.494,8.214 10.578,10.128 10.578,12.483 L10.578,29.571 C10.578,30.622 11.156,31.54 12.002,32.034 L12.002,33.132 C12.002,34.314 12.96,35.267 14.137,35.267 C15.323,35.267 16.276,34.314 16.276,33.132 L16.276,32.42 L26.243,32.42 L26.243,33.132 C26.243,34.314 27.196,35.267 28.378,35.267 C29.56,35.267 30.513,34.314 30.513,33.132 L30.513,32.034 C31.364,31.54 31.937,30.622 31.937,29.571 L31.937,12.483 C31.937,10.128 30.021,8.214 27.668,8.214 Z" id="Fill-6" fill="#FFFFFE"></path>
        <polygon id="Fill-7" fill="#005391" points="13.265 30.102 29.266 30.102 29.266 24.352 13.265 24.352"></polygon>
        <path d="M26.739,30.678 C24.989,30.678 23.57,29.255 23.57,27.511 C23.57,26.441 24.104,25.494 24.921,24.92 C25.613,26.406 26.238,27.554 26.29,27.649 C26.382,27.816 26.553,27.909 26.729,27.909 C26.812,27.909 26.894,27.889 26.97,27.848 C27.212,27.715 27.302,27.411 27.169,27.168 C27.156,27.145 26.521,25.982 25.822,24.48 C26.112,24.392 26.42,24.343 26.739,24.343 C28.484,24.343 29.903,25.766 29.903,27.511 C29.903,29.255 28.484,30.678 26.739,30.678 Z M21.025,26.5 L19.175,22.552 L23.902,22.552 C23.919,22.596 23.935,22.639 23.953,22.682 L21.025,26.5 Z M19.772,26.958 C19.613,25.79 18.96,24.778 18.027,24.148 L18.456,23.376 L20.134,26.958 L19.772,26.958 Z M18.872,26.958 L16.465,26.958 L17.59,24.934 C18.252,25.406 18.724,26.126 18.872,26.958 Z M15.754,30.678 C14.009,30.678 12.59,29.255 12.59,27.511 C12.59,25.766 14.009,24.343 15.754,24.343 C16.081,24.343 16.397,24.393 16.694,24.486 L15.177,27.215 C15.091,27.37 15.093,27.56 15.183,27.712 C15.273,27.865 15.437,27.959 15.615,27.959 L18.888,27.959 C18.668,29.492 17.35,30.678 15.754,30.678 Z M26.739,23.452 C26.288,23.452 25.856,23.528 25.451,23.664 C24.956,22.545 24.476,21.329 24.203,20.293 C24.89,20.242 25.934,20.028 26.488,19.234 C26.647,19.008 26.592,18.696 26.365,18.537 C26.14,18.379 25.827,18.434 25.668,18.66 C25.232,19.283 24.039,19.333 23.617,19.3 C23.461,19.287 23.308,19.347 23.203,19.464 C23.098,19.58 23.054,19.74 23.084,19.893 C23.182,20.402 23.342,20.966 23.539,21.55 L18.706,21.55 L18.542,21.2 L19.32,21.2 C19.596,21.2 19.82,20.976 19.82,20.699 C19.82,20.423 19.596,20.199 19.32,20.199 L16.166,20.199 C15.889,20.199 15.665,20.423 15.665,20.699 C15.665,20.976 15.889,21.2 16.166,21.2 L17.442,21.2 C17.449,21.221 17.455,21.242 17.464,21.262 L17.931,22.258 L17.132,23.696 C16.701,23.541 16.239,23.452 15.754,23.452 C13.515,23.452 11.697,25.269 11.697,27.511 C11.697,29.752 13.515,31.568 15.754,31.568 C17.845,31.568 19.564,29.99 19.788,27.959 L20.922,27.959 C20.959,27.959 20.997,27.954 21.034,27.946 C21.046,27.944 21.058,27.938 21.07,27.934 C21.092,27.927 21.113,27.922 21.134,27.911 C21.136,27.911 21.138,27.91 21.139,27.909 C21.148,27.904 21.156,27.899 21.164,27.894 C21.188,27.881 21.211,27.867 21.231,27.851 C21.24,27.844 21.248,27.835 21.257,27.828 C21.275,27.812 21.292,27.794 21.308,27.775 C21.311,27.771 21.316,27.768 21.319,27.763 L24.395,23.752 C24.444,23.868 24.495,23.984 24.546,24.098 C23.423,24.82 22.678,26.076 22.678,27.511 C22.678,29.752 24.495,31.568 26.739,31.568 C28.978,31.568 30.796,29.752 30.796,27.511 C30.796,25.269 28.978,23.452 26.739,23.452 Z" id="Stroke-8" stroke="#005391" stroke-width="2"></path>
        <path d="M26.739,30.678 C24.989,30.678 23.57,29.255 23.57,27.511 C23.57,26.441 24.104,25.494 24.921,24.92 C25.613,26.406 26.238,27.554 26.29,27.649 C26.382,27.816 26.553,27.909 26.729,27.909 C26.812,27.909 26.894,27.889 26.97,27.848 C27.212,27.715 27.302,27.411 27.169,27.168 C27.156,27.145 26.521,25.982 25.822,24.48 C26.112,24.392 26.42,24.343 26.739,24.343 C28.484,24.343 29.903,25.766 29.903,27.511 C29.903,29.255 28.484,30.678 26.739,30.678 Z M21.025,26.5 L19.175,22.552 L23.902,22.552 C23.919,22.596 23.935,22.639 23.953,22.682 L21.025,26.5 Z M19.772,26.958 C19.613,25.79 18.96,24.778 18.027,24.148 L18.456,23.376 L20.134,26.958 L19.772,26.958 Z M18.872,26.958 L16.465,26.958 L17.59,24.934 C18.252,25.406 18.724,26.126 18.872,26.958 Z M15.754,30.678 C14.009,30.678 12.59,29.255 12.59,27.511 C12.59,25.766 14.009,24.343 15.754,24.343 C16.081,24.343 16.397,24.393 16.694,24.486 L15.177,27.215 C15.091,27.37 15.093,27.56 15.183,27.712 C15.273,27.865 15.437,27.959 15.615,27.959 L18.888,27.959 C18.668,29.492 17.35,30.678 15.754,30.678 Z M26.739,23.452 C26.288,23.452 25.856,23.528 25.451,23.664 C24.956,22.545 24.476,21.329 24.203,20.293 C24.89,20.242 25.934,20.028 26.488,19.234 C26.647,19.008 26.592,18.696 26.365,18.537 C26.14,18.379 25.827,18.434 25.668,18.66 C25.232,19.283 24.039,19.333 23.617,19.3 C23.461,19.287 23.308,19.347 23.203,19.464 C23.098,19.58 23.054,19.74 23.084,19.893 C23.182,20.402 23.342,20.966 23.539,21.55 L18.706,21.55 L18.542,21.2 L19.32,21.2 C19.596,21.2 19.82,20.976 19.82,20.699 C19.82,20.423 19.596,20.199 19.32,20.199 L16.166,20.199 C15.889,20.199 15.665,20.423 15.665,20.699 C15.665,20.976 15.889,21.2 16.166,21.2 L17.442,21.2 C17.449,21.221 17.455,21.242 17.464,21.262 L17.931,22.258 L17.132,23.696 C16.701,23.541 16.239,23.452 15.754,23.452 C13.515,23.452 11.697,25.269 11.697,27.511 C11.697,29.752 13.515,31.568 15.754,31.568 C17.845,31.568 19.564,29.99 19.788,27.959 L20.922,27.959 C20.959,27.959 20.997,27.954 21.034,27.946 C21.046,27.944 21.058,27.938 21.07,27.934 C21.092,27.927 21.113,27.922 21.134,27.911 C21.136,27.911 21.138,27.91 21.139,27.909 C21.148,27.904 21.156,27.899 21.164,27.894 C21.188,27.881 21.211,27.867 21.231,27.851 C21.24,27.844 21.248,27.835 21.257,27.828 C21.275,27.812 21.292,27.794 21.308,27.775 C21.311,27.771 21.316,27.768 21.319,27.763 L24.395,23.752 C24.444,23.868 24.495,23.984 24.546,24.098 C23.423,24.82 22.678,26.076 22.678,27.511 C22.678,29.752 24.495,31.568 26.739,31.568 C28.978,31.568 30.796,29.752 30.796,27.511 C30.796,25.269 28.978,23.452 26.739,23.452 Z" id="Fill-9" fill="#FFFFFE"></path>
    </g>
</svg>