<?xml version="1.0" encoding="UTF-8"?>
<svg width="62px" height="43px" viewBox="0 0 62 43" version="1.1" xmlns="http://www.w3.org/2000/svg" xmlns:xlink="http://www.w3.org/1999/xlink">
    <!-- Generator: Sketch 51.3 (57544) - http://www.bohemiancoding.com/sketch -->
    <title>Park&amp;Ride</title>
    <desc>Created with Sketch.</desc>
    <defs>
        <polygon id="path-1" points="0.852 0.398 43.455 0.398 43.455 42.94 0.852 42.94"></polygon>
    </defs>
    <g id="Park&amp;Ride" stroke="none" stroke-width="1" fill="none" fill-rule="evenodd">
        <g id="Group-3" transform="translate(18.000000, 0.000000)">
            <mask id="mask-2" fill="white">
                <use xlink:href="#path-1"></use>
            </mask>
            <g id="Clip-2"></g>
            <path d="M43.455,21.697 C43.455,33.463 33.918,42.999 22.153,42.999 C10.39,42.999 0.852,33.463 0.852,21.697 C0.852,9.934 10.39,0.398 22.153,0.398 C33.918,0.398 43.455,9.934 43.455,21.697" id="Fill-1" fill="#005391" mask="url(#mask-2)"></path>
        </g>
        <path d="M28.51,16.183 L28.51,19.86 C28.51,20.538 29.06,21.088 29.735,21.088 L29.735,14.958 C29.06,14.958 28.51,15.506 28.51,16.183" id="Fill-4" fill="#FFFFFE"></path>
        <path d="M50.574,14.958 L50.574,21.088 C51.249,21.088 51.798,20.538 51.798,19.86 L51.798,16.183 C51.798,15.506 51.249,14.958 50.574,14.958" id="Fill-5" fill="#FFFFFE"></path>
        <path d="M48.124,23.538 C48.124,24.213 47.571,24.763 46.897,24.763 L33.414,24.763 C32.739,24.763 32.189,24.213 32.189,23.538 L32.189,14.957 C32.189,14.284 32.739,13.732 33.414,13.732 L46.897,13.732 C47.571,13.732 48.124,14.284 48.124,14.957 L48.124,23.538 Z M46.897,28.441 C46.222,28.441 45.672,27.891 45.672,27.214 C45.672,26.538 46.222,25.989 46.897,25.989 C47.575,25.989 48.124,26.538 48.124,27.214 C48.124,27.891 47.575,28.441 46.897,28.441 Z M33.414,28.441 C32.736,28.441 32.189,27.891 32.189,27.214 C32.189,26.538 32.736,25.989 33.414,25.989 C34.09,25.989 34.639,26.538 34.639,27.214 C34.639,27.891 34.09,28.441 33.414,28.441 Z M38.316,11.28 L41.995,11.28 C42.668,11.28 43.221,11.556 43.221,11.893 C43.221,12.23 42.668,12.507 41.995,12.507 L38.316,12.507 C37.644,12.507 37.092,12.23 37.092,11.893 C37.092,11.556 37.644,11.28 38.316,11.28 Z M45.672,10.053 L34.639,10.053 C32.612,10.053 30.963,11.704 30.963,13.732 L30.963,28.441 C30.963,29.344 31.457,30.136 32.189,30.561 L32.189,31.504 C32.189,32.522 33.011,33.344 34.026,33.344 C35.044,33.344 35.864,32.522 35.864,31.504 L35.864,30.892 L44.445,30.892 L44.445,31.504 C44.445,32.522 45.269,33.344 46.285,33.344 C47.301,33.344 48.124,32.522 48.124,31.504 L48.124,30.561 C48.853,30.136 49.348,29.344 49.348,28.441 L49.348,13.732 C49.348,11.704 47.699,10.053 45.672,10.053 Z" id="Fill-6" fill="#FFFFFE"></path>
        <path d="M25.123,13.082 C25.123,19.951 19.553,25.521 12.687,25.521 C5.823,25.521 0.25,19.951 0.25,13.082 C0.25,6.211 5.823,0.648 12.687,0.648 C19.553,0.648 25.123,6.211 25.123,13.082" id="Fill-7" fill="#2E383D"></path>
        <path d="M25.123,13.082 C25.123,19.951 19.553,25.521 12.687,25.521 C5.823,25.521 0.25,19.951 0.25,13.082 C0.25,6.211 5.823,0.648 12.687,0.648 C19.553,0.648 25.123,6.211 25.123,13.082" id="Stroke-8" stroke="#FFFFFE" stroke-width="0.501"></path>
        <path d="M14.468,6.736 C15.194,6.876 15.899,6.984 16.586,7.151 C17.325,7.333 17.833,7.774 18.085,8.533 C18.377,9.419 18.745,10.278 19.085,11.159 C19.198,11.166 19.306,11.181 19.414,11.173 C20.355,11.104 20.493,11.673 20.638,12.31 C20.698,12.57 20.561,12.736 20.285,12.753 C20.108,12.764 19.929,12.755 19.77,12.755 C19.99,14.64 19.837,16.506 19.862,18.367 C19.866,18.559 19.664,18.755 19.558,18.948 L17.077,18.948 C16.55,18.547 16.847,17.931 16.712,17.432 L9.081,17.432 C8.973,17.959 9.239,18.547 8.723,18.948 L6.243,18.948 C5.99,18.763 5.91,18.523 5.916,18.204 C5.934,16.908 5.916,15.612 5.927,14.319 C5.931,13.815 5.981,13.313 6.014,12.755 C5.884,12.755 5.676,12.807 5.521,12.739 C5.37,12.674 5.151,12.463 5.172,12.352 C5.277,11.726 5.454,11.089 6.347,11.179 C6.635,11.209 6.744,11.094 6.836,10.827 C7.132,9.985 7.476,9.161 7.786,8.323 C7.943,7.896 8.235,7.618 8.629,7.411 C9.464,6.971 10.374,6.865 11.314,6.803 C11.314,6.803 13.105,6.588 14.468,6.736 M17.983,11.421 C17.664,10.558 17.352,9.784 17.093,8.991 C16.939,8.519 16.622,8.283 16.176,8.222 C15.348,8.108 14.515,7.988 13.682,7.957 C12.308,7.907 10.929,7.876 9.58,8.223 C9.319,8.29 8.97,8.445 8.873,8.654 C8.477,9.521 8.162,10.426 7.779,11.418 C11.233,12.131 14.556,12.145 17.983,11.421 M8.397,15.142 C8.812,15.109 9.117,15.113 9.407,15.048 C9.552,15.014 9.746,14.869 9.774,14.741 C9.803,14.612 9.7,14.356 9.588,14.303 C8.907,13.984 8.216,13.678 7.505,13.434 C7.221,13.336 6.847,13.346 6.735,13.769 C6.569,14.402 6.716,14.866 7.165,14.97 C7.602,15.075 8.056,15.1 8.397,15.142 M17.294,15.136 C17.569,15.111 17.842,15.094 18.116,15.064 C19.014,14.967 19.097,14.878 19.082,14.011 C19.071,13.548 18.888,13.308 18.454,13.434 C17.676,13.662 16.926,14.004 16.178,14.331 C16.078,14.374 15.994,14.623 16.024,14.748 C16.055,14.87 16.224,15.014 16.356,15.043 C16.662,15.108 16.982,15.108 17.294,15.136" id="Fill-10" fill="#FFFFFE"></path>
        <polyline id="Fill-11" fill="#2E383D" points="8.267 28.09 14.468 34.291 2.044 34.291 2.044 36.207 14.468 36.207 8.267 42.408 10.957 42.408 18.116 35.249 10.957 28.09 8.267 28.09"></polyline>
    </g>
</svg>