<svg height="20" viewBox="0 0 29 20" width="29" xmlns="http://www.w3.org/2000/svg"><g fill="#323e48" fill-rule="evenodd"><path d="m.5034 5.8286v2.933c0 .541.439.979.978.979v-4.888c-.539 0-.978.437-.978.976m17.5962-.976v4.887c.539 0 .977-.438.977-.978v-2.933c0-.538-.438-.976-.977-.976m-1.9531 6.8418c0 .539-.441.978-.979.978h-10.753c-.538 0-.977-.439-.977-.978v-6.842c0-.537.439-.979.977-.979h10.753c.538 0 .979.442.979.979zm-.979 3.909c-.54 0-.978-.436-.978-.977 0-.537.438-.976.978-.976.541 0 .979.439.979.976 0 .541-.438.977-.979.977zm-10.753 0c-.54 0-.977-.436-.977-.977 0-.537.437-.976.977-.976.539 0 .978.439.978.976 0 .541-.439.977-.978.977zm3.909-13.684h2.934c.537 0 .979.219.979.489 0 .268-.442.489-.979.489h-2.934c-.535 0-.976-.221-.976-.489 0-.27.441-.489.976-.489zm5.866-.978h-8.797c-1.617 0-2.932 1.316-2.932 2.932v11.73c0 .722.393 1.354.977 1.692v.752c0 .811.655 1.467 1.467 1.467.81 0 1.463-.656 1.463-1.467v-.488h6.845v.488c0 .811.657 1.467 1.467 1.467.811 0 1.467-.656 1.467-1.467v-.752c.582-.338.976-.97.976-1.692v-11.73c0-1.616-1.315-2.932-2.933-2.932zm6.2841 10.7022c.636.002 1.135-.488 1.139-1.119.003-.628-.5-1.133-1.128-1.134-.627-.002-1.132.504-1.131 1.134.001.622.498 1.117 1.12 1.119m4.6602-3.3052c.411.103.748.306.939.704.303.63.028 1.403-.601 1.684-.659.291-1.416-.019-1.68-.689-.259-.661.083-1.394.757-1.628.066-.023.132-.047.197-.071zm1.46 9.8071c.035.206.074.401.102.599.044.321-.18.629-.491.684-.337.06-.65-.135-.725-.459-.044-.188-.081-.379-.108-.57l-.149-.81c-.076-.407-.149-.798-.221-1.191-.012-.002-.024-.003-.038-.006-.073.399-.149.797-.224 1.195l-.154.832c-.027.185-.06.371-.105.552-.083.333-.382.516-.725.456-.304-.053-.516-.341-.493-.667.003-.025.005-.052.008-.076.043-.234.085-.469.135-.752l.096-.501c.113-.584.218-1.168.32-1.753.024-.132.028-.269.028-.404.001-.63 0-1.261 0-1.95-.329.427-.623.81-.94 1.22-.14-.358-.277-.689-.399-1.025-.016-.042.026-.118.062-.165.4-.531.807-1.059 1.209-1.589.175-.23.405-.374.682-.449.325-.088.651-.089.977-.017.401.09.676.31.817.714.311.889.649 1.768.964 2.654.06.171.142.234.318.216.172-.015.348-.004.54-.004v1.47h-2.024v-1.445c.046-.013.1-.028.153-.041.004-.012.014-.027.009-.036-.099-.28-.2-.558-.307-.835-.05-.139-.16-.189-.295-.135-.125.052-.181.171-.12.288.296.557.204 1.156.215 1.746.005.258.001.515.001.793h.607c.06.315.116.614.176.938z"/><path d="m21.8604 17.8272.083.308c.047.24.103.477.138.717.043.296-.15.564-.431.62-.31.061-.596-.112-.668-.413-.054-.219-.099-.441-.141-.663l-.074-.549c-.14.07-.502.029-.502.029l-.072.422c-.049.244-.094.489-.147.733-.07.322-.365.508-.687.441-.29-.062-.481-.357-.422-.666.065-.331.131-.659.206-.987.029-.127.03-.221-.11-.282-.167-.069-.183-.176-.111-.349.187-.453.347-.916.517-1.377.017-.042.036-.085.037-.129.003-.326.002-.653-.027-.988-.138.286-.275.573-.413.86-.142.29-.379.392-.629.274-.248-.119-.325-.376-.19-.659.4-.838.805-1.674 1.205-2.513.157-.332.416-.513.776-.563.352-.05.695-.032 1.023.12.227.104.384.267.476.507.261.687.538 1.369.8 2.055.049.13.114.183.253.17.126-.013.255-.002.409-.002v1.367c0 .032-.008.062-.013.105h-2.014v-1.47h.446c-.098-.308-.183-.592-.278-.873-.043-.128-.145-.184-.276-.141-.128.043-.179.144-.144.278.032.123.073.245.115.383-.072.014-.132.026-.202.039v2.129c.324 0 .638.008.952-.004.167-.008.272.028.301.206.01.056.041.109.062.164.114.305.118.314-.178.471-.189.092-.07.23-.07.23"/></g></svg>