<?xml version="1.0" encoding="UTF-8"?>
<svg width="24px" height="24px" viewBox="3 3 15 15" version="1.1" xmlns="http://www.w3.org/2000/svg" xmlns:xlink="http://www.w3.org/1999/xlink">
    <!-- Generator: Sketch 51.3 (57544) - http://www.bohemiancoding.com/sketch -->
    <title>taxi_pictogram</title>
    <desc>Created with Sketch.</desc>
    <defs></defs>
    <g id="Assets" stroke="none" stroke-width="1" fill="none" fill-rule="evenodd">
        <path d="M13.3972512,12.2536951 C13.6116698,12.2360207 13.8232977,12.2216021 14.0344605,12.1988114 C14.7316698,12.1239276 14.7958559,12.0536951 14.7828326,11.3839276 C14.7758559,11.0243928 14.6330652,10.837416 14.2977163,10.9350904 C13.6926,11.1122997 13.1116698,11.3769509 12.5326,11.6299742 C12.4549256,11.6634625 12.3898093,11.8564858 12.4144605,11.9536951 C12.4377163,12.0485788 12.5693442,12.161137 12.6707396,12.1834625 C12.9074838,12.23323 13.1549256,12.23323 13.3972512,12.2536951 Z M6.50143725,12.2597416 C6.82236748,12.2341602 7.0600419,12.2369509 7.28515818,12.1857881 C7.39678608,12.1606718 7.54748376,12.0481137 7.56887911,11.949509 C7.59213492,11.8481137 7.51260004,11.6499742 7.42376283,11.6085788 C6.89539074,11.3620672 6.36143725,11.1257881 5.81073957,10.9350904 C5.59027446,10.8602067 5.3000419,10.8676486 5.21353027,11.1950904 C5.08422795,11.6862532 5.19957678,12.045323 5.54748376,12.1276486 C5.88562329,12.2076486 6.23864655,12.2257881 6.50143725,12.2597416 Z M13.9330652,9.37369509 C13.6846931,8.70671835 13.4419024,8.10718346 13.2419024,7.49369509 C13.1228326,7.12671835 12.876321,6.94299742 12.5307396,6.89555556 C11.888414,6.80718346 11.2442279,6.71555556 10.5972512,6.69090439 C9.53353027,6.65136951 8.46329771,6.6281137 7.41911167,6.89602067 C7.21539074,6.94904393 6.94422795,7.06764858 6.87073957,7.23043928 C6.56329771,7.90299742 6.31911167,8.60485788 6.0228326,9.37322997 C8.70143725,9.925323 11.2753907,9.93602067 13.9330652,9.37369509 Z M4.83260004,15.2090439 C4.63632097,15.0667183 4.5744605,14.8797416 4.57771632,14.6318346 C4.59260004,13.6281137 4.57771632,12.6248579 4.58701864,11.621137 C4.58980934,11.2318346 4.62841399,10.8429974 4.65539074,10.4090439 C4.5544605,10.4090439 4.39306515,10.449509 4.27260004,10.3964858 C4.15539074,10.3457881 3.98562329,10.1829974 4.00097213,10.0969509 C4.08376283,9.61136951 4.22050701,9.11834625 4.91213492,9.1881137 C5.13585585,9.21090439 5.21911167,9.12206718 5.29213492,8.91555556 C5.52143725,8.2625323 5.78794888,7.62299742 6.02748376,6.97416021 C6.14934422,6.64346253 6.37678608,6.42625323 6.68143725,6.26764858 C7.32934422,5.92671835 8.03492562,5.84392765 8.7628326,5.79648579 C8.7744605,5.72671835 8.79260004,5.66764858 8.79399539,5.6081137 C8.81073957,5.06067183 8.86887911,5.00160207 9.40701864,5.00020672 C9.8028326,5.00020672 10.1977163,4.9997416 10.5935303,5.00020672 C11.108414,5.00160207 11.1744605,5.06764858 11.1902745,5.59090439 C11.1921349,5.65322997 11.2037628,5.71462532 11.2065535,5.74439276 C11.7698093,5.85322997 12.3153907,5.93602067 12.8498093,6.06671835 C13.4223675,6.20671835 13.816321,6.54764858 14.0107396,7.13741602 C14.2372512,7.82346253 14.5223675,8.48950904 14.7856233,9.17276486 C14.8726,9.17834625 14.9572512,9.19043928 15.0409721,9.18392765 C15.7702745,9.13043928 15.8777163,9.56950904 15.9907396,10.0639276 C16.0358559,10.2662532 15.9298093,10.39323 15.716321,10.4071835 C15.5786465,10.4160207 15.4409721,10.4090439 15.316321,10.4090439 C15.4888791,11.8699742 15.3688791,13.3169509 15.388414,14.7616021 C15.3912047,14.9090439 15.2349256,15.0597416 15.1516698,15.2090439 L13.228414,15.2090439 C12.8209721,14.8988114 13.0516698,14.4216021 12.9465535,14.0336951 L7.03120469,14.0336951 C6.94934422,14.4416021 7.15492562,14.8988114 6.75585585,15.2090439 L4.83260004,15.2090439 Z" id="Fill-4" fill="#323E48"></path>
    </g>
</svg>