<?xml version="1.0" encoding="UTF-8"?>
<svg width="14px" height="17px" viewBox="0 0 14 17" version="1.1" xmlns="http://www.w3.org/2000/svg" xmlns:xlink="http://www.w3.org/1999/xlink">
    <!-- Generator: Sketch 51.1 (57501) - http://www.bohemiancoding.com/sketch -->
    <title>np_accessibility_732837_000000</title>
    <desc>Created with Sketch.</desc>
    <defs></defs>
    <g stroke="none" stroke-width="1" fill="none" fill-rule="evenodd">
        <g id="Map---TP---Popup-Filter" transform="translate(-458.000000, -651.000000)" fill="#666666" fill-rule="nonzero">
            <g id="np_accessibility_732837_000000" transform="translate(458.000000, 651.000000)">
                <path d="M13.5503936,12.7652719 L12.0460133,13.4070194 L9.81890829,8.37893506 L5.05089489,8.37893506 L4.89442698,7.26196 L8.66573371,7.26196 L8.66573371,6.02050877 L4.73869767,6.02050877 L4.367761,3.28952298 C4.42653172,3.28952298 4.50438465,3.31053661 4.56315537,3.31053661 C5.42257797,3.31053661 6.12631033,2.56533482 6.12631033,1.65526831 C6.12631033,0.745201791 5.42257797,0 4.56315537,0 C3.70373278,0 3.00000041,0.745201791 3.00000041,1.65526831 L3.00000041,2.0278692 C2.9992372,2.2129551 4.05481738,9.62037801 4.05481738,9.62037801 L9.07625728,9.62037801 L11.4598732,15 L14,13.9242411 L13.5503936,12.7652719 Z" id="Shape"></path>
                <path d="M9.07751435,11.3655988 C9.0962527,11.5150064 9.0962527,11.6644215 9.0962527,11.8130866 C9.0962527,14.0329869 7.30669939,15.861634 5.0926733,15.861634 C2.89742984,15.861634 1.08909389,14.0519805 1.08909389,11.8130866 C1.08909389,10.1710544 2.04837359,8.77168498 3.43212605,8.13769427 L3.28437794,7 C1.36589236,7.74631043 0,9.6120865 0,11.8319869 C0,14.6868108 2.28749608,17 5.1106109,17 C7.41692651,17 9.35423163,15.4702129 10,13.3427057 L9.07751435,11.3655988 Z" id="Shape"></path>
            </g>
        </g>
    </g>
</svg>