<svg width="12" height="12" viewBox="0 0 12 12" fill="none" xmlns="http://www.w3.org/2000/svg">
<path d="M5.99999 11.833C5.76399 11.833 5.55899 11.7463 5.38499 11.573C5.21166 11.399 5.12499 11.194 5.12499 10.958V6.875H1.04199C0.805992 6.875 0.600992 6.78833 0.426992 6.615C0.253659 6.441 0.166992 6.236 0.166992 6C0.166992 5.764 0.253659 5.559 0.426992 5.385C0.600992 5.21167 0.805992 5.125 1.04199 5.125H5.12499V1.042C5.12499 0.806 5.21166 0.601 5.38499 0.427C5.55899 0.253667 5.76399 0.167 5.99999 0.167C6.23599 0.167 6.44099 0.253667 6.61499 0.427C6.78833 0.601 6.87499 0.806 6.87499 1.042V5.125H10.958C11.194 5.125 11.399 5.21167 11.573 5.385C11.7463 5.559 11.833 5.764 11.833 6C11.833 6.236 11.7463 6.441 11.573 6.615C11.399 6.78833 11.194 6.875 10.958 6.875H6.87499V10.958C6.87499 11.194 6.78833 11.399 6.61499 11.573C6.44099 11.7463 6.23599 11.833 5.99999 11.833Z" fill="#1C1B1F"/>
</svg>
