<svg width="24" height="24" viewBox="0 0 24 24" fill="none" xmlns="http://www.w3.org/2000/svg">
<mask id="mask0_108_1641" style="mask-type:alpha" maskUnits="userSpaceOnUse" x="0" y="0" width="24" height="24">
<rect width="24" height="24" fill="#D9D9D9"/>
</mask>
<g mask="url(#mask0_108_1641)">
<path d="M6 19V19.525C6 19.9417 5.85833 20.2917 5.575 20.575C5.29167 20.8583 4.93333 21 4.5 21C4.08333 21 3.72917 20.8542 3.4375 20.5625C3.14583 20.2708 3 19.9167 3 19.5V12L5.1 6C5.2 5.7 5.37917 5.45833 5.6375 5.275C5.89583 5.09167 6.18333 5 6.5 5H17.5C17.8167 5 18.1042 5.09167 18.3625 5.275C18.6208 5.45833 18.8 5.7 18.9 6L21 12V19.525C21 19.9417 20.8583 20.2917 20.575 20.575C20.2917 20.8583 19.9333 21 19.5 21C19.0833 21 18.7292 20.8542 18.4375 20.5625C18.1458 20.2708 18 19.9167 18 19.5V19H6ZM5.8 10H18.2L17.15 7H6.85L5.8 10ZM7.5 16C7.91667 16 8.27083 15.8542 8.5625 15.5625C8.85417 15.2708 9 14.9167 9 14.5C9 14.0833 8.85417 13.7292 8.5625 13.4375C8.27083 13.1458 7.91667 13 7.5 13C7.08333 13 6.72917 13.1458 6.4375 13.4375C6.14583 13.7292 6 14.0833 6 14.5C6 14.9167 6.14583 15.2708 6.4375 15.5625C6.72917 15.8542 7.08333 16 7.5 16ZM16.5 16C16.9167 16 17.2708 15.8542 17.5625 15.5625C17.8542 15.2708 18 14.9167 18 14.5C18 14.0833 17.8542 13.7292 17.5625 13.4375C17.2708 13.1458 16.9167 13 16.5 13C16.0833 13 15.7292 13.1458 15.4375 13.4375C15.1458 13.7292 15 14.0833 15 14.5C15 14.9167 15.1458 15.2708 15.4375 15.5625C15.7292 15.8542 16.0833 16 16.5 16Z" fill="#292A2B"/>
</g>
</svg>
