<?xml version="1.0" encoding="UTF-8"?>
<svg width="21px" height="20px" viewBox="0 0 21 20" version="1.1" xmlns="http://www.w3.org/2000/svg" xmlns:xlink="http://www.w3.org/1999/xlink">
    <!-- Generator: Sketch 51.1 (57501) - http://www.bohemiancoding.com/sketch -->
    <desc>Created with Sketch.</desc>
    <defs></defs>
    <g stroke="none" stroke-width="1" fill="none" fill-rule="evenodd">
        <g id="Map---TP---leaving-calander" transform="translate(-372.000000, -435.000000)" fill="#FFFFFF" fill-rule="nonzero">
            <path d="M377.671063,439.125006 C378.297168,439.125006 378.805496,438.617842 378.805496,437.990573 L378.805496,436.134433 C378.805496,435.508328 378.298332,435 377.671063,435 C377.044957,435 376.536629,435.507164 376.536629,436.134433 L376.536629,437.990573 C376.536629,438.617842 377.043793,439.125006 377.671063,439.125006 Z M386.946984,439.125006 C387.573089,439.125006 388.081417,438.617842 388.081417,437.990573 L388.081417,436.134433 C388.081417,435.508328 387.574253,435 386.946984,435 C386.320879,435 385.81255,435.507164 385.81255,436.134433 L385.81255,437.990573 C385.813717,438.617842 386.320879,439.125006 386.946984,439.125006 Z M391.586138,436.857303 L388.699344,436.857303 L388.699344,438.196936 C388.699344,439.164643 387.914691,439.949297 386.946984,439.949297 C385.979277,439.949297 385.194623,439.164643 385.194623,438.196936 L385.194623,436.857303 L379.42217,436.857303 L379.42217,438.196936 C379.42217,439.164643 378.637516,439.949297 377.669809,439.949297 C376.702102,439.949297 375.917449,439.164643 375.917449,438.196936 L375.917449,436.857303 L373.030655,436.857303 C372.461707,436.857303 372,437.31901 372,437.887958 L372,453.969345 C372,454.538293 372.461707,455 373.030655,455 L391.584885,455 C392.153833,455 392.615539,454.538293 392.615539,453.969345 L392.616705,437.889152 C392.616705,437.31901 392.154998,436.857333 391.586051,436.857333 L391.586138,436.857303 Z" id="Calendar"></path>
        </g>
    </g>
</svg>