<svg width="24" height="24" viewBox="0 0 24 24" fill="none" xmlns="http://www.w3.org/2000/svg">
<g id="Misc / clocksand">
<path id="Color" fill-rule="evenodd" clip-rule="evenodd" d="M6 22C5.44772 22 5 21.5523 5 21C5 20.4477 5.44772 20 6 20V18.4853C6 16.7319 6.65783 15.0464 7.83681 13.7586L8.05025 13.5355L8.87868 12.7071C9.23916 12.3466 9.26689 11.7794 8.96187 11.3871L8.87868 11.2929L8.05025 10.4645C6.81043 9.22464 6.08372 7.56762 6.0068 5.82337L6 5.51472V5C5.44772 5 5 4.55228 5 4C5 3.44772 5.44772 3 6 3H18C18.5523 3 19 3.44772 19 4C19 4.55228 18.5523 5 18 5V5.84246C18 7.7255 17.2258 9.52124 15.8667 10.8127L15.6585 11.0026L15.2673 11.3448L15.2187 11.3903C14.8583 11.7508 14.8305 12.318 15.1356 12.7103L15.2187 12.8045L15.9497 13.5355C17.1896 14.7754 17.9163 16.4324 17.9932 18.1766L18 18.4853V20C18.5523 20 19 20.4477 19 21C19 21.5523 18.5523 22 18 22H6ZM16 5H8V5.51472C8 6.66399 8.39567 7.77247 9.11158 8.65802L9.28244 8.85834L9.46447 9.05025L10.2929 9.87868C11.4176 11.0034 11.4626 12.799 10.4279 13.9773L10.2929 14.1213L9.46447 14.9497C8.64465 15.7696 8.13893 16.8448 8.02474 17.9883L11.1056 16.4472C11.6686 16.1657 12.3314 16.1657 12.8944 16.4472L15.9752 17.9873C15.8783 17.0193 15.5009 16.1004 14.8899 15.3439L14.7176 15.1417L14.5355 14.9497L13.8045 14.2187C12.633 13.0472 12.633 11.1477 13.8045 9.9761L13.8763 9.90668L13.9503 9.83969L14.3415 9.49742C15.3335 8.62946 15.9273 7.39824 15.9938 6.08883L16 5.84246V5ZM14 6.5C14 7.44427 13.5554 8.33344 12.8 8.9L12 9.5L11.2 8.9C10.4446 8.33344 10 7.44427 10 6.5H14Z" fill="#292A2B"/>
</g>
</svg>
