<?xml version="1.0" encoding="UTF-8"?>
<svg width="14px" height="14px" viewBox="0 0 14 14" version="1.1" xmlns="http://www.w3.org/2000/svg" xmlns:xlink="http://www.w3.org/1999/xlink">
    <!-- Generator: Sketch 51.1 (57501) - http://www.bohemiancoding.com/sketch -->
    <desc>Created with Sketch.</desc>
    <defs></defs>
    <g stroke="none" stroke-width="1" fill="none" fill-rule="evenodd">
        <g id="Homepage-last-trip--TP" transform="translate(-574.000000, -837.000000)" fill="#000000" fill-rule="nonzero">
            <g id="Group-9" transform="translate(98.000000, 749.000000)">
                <g id="Group-8" transform="translate(476.000000, 85.000000)">
                    <g id="np_clear_1786991_000000" transform="translate(0.000000, 3.000000)">
                        <path d="M7,0 C5.14349141,0 3.36325238,0.737597197 2.05071038,2.05071038 C0.737597197,3.36316838 0,5.14349141 0,7 C0,8.85650859 0.737597197,10.6367476 2.05071038,11.9492896 C3.36316838,13.2624028 5.14349141,14 7,14 C8.85650859,14 10.6367476,13.2624028 11.9492896,11.9492896 C13.2624028,10.6368316 14,8.85650859 14,7 C14,5.14349141 13.2624028,3.36325238 11.9492896,2.05071038 C10.6368316,0.737597197 8.85650859,2.3873472e-15 7,2.3873472e-15 Z M9.97468081,8.98048862 L9.97468081,8.98114498 C10.2463617,9.25413624 10.2463617,9.69512213 9.97468081,9.9681134 C9.84343501,10.1006712 9.66427714,10.1748308 9.47792071,10.1748308 C9.29156427,10.1748308 9.112398,10.1006763 8.9811606,9.9681134 L7,7.98695279 L5.02606317,9.9681134 C4.89481737,10.1006712 4.7156595,10.1748308 4.52930306,10.1748308 C4.34227465,10.1748308 4.16378036,10.1006763 4.03188778,9.9681134 C3.76086205,9.69512213 3.76086205,9.25413624 4.03188778,8.98114498 L6.01304838,6.99998438 L4.03188778,5.01882377 C3.76086205,4.74583251 3.76086205,4.30484662 4.03188778,4.03185536 C4.16379044,3.89929752 4.34229145,3.82513797 4.52930306,3.82513797 C4.7156763,3.82513797 4.89482577,3.89929248 5.02606317,4.03185536 L7,6.01301596 L8.97393683,4.03185536 C9.10518263,3.89929752 9.2843405,3.82513797 9.47069694,3.82513797 C9.65772535,3.82513797 9.83621964,3.89929248 9.96811222,4.03185536 C10.2391379,4.30484662 10.2391379,4.74583251 9.96811222,5.01882377 L7.99417539,6.99998438 L9.97468081,8.98048862 Z" id="Shape"></path>
                    </g>
                </g>
            </g>
        </g>
    </g>
</svg>