<?xml version="1.0" encoding="UTF-8" standalone="no"?>
<svg width="24px" height="24px" viewBox="0 0 24 24" version="1.1" xmlns="http://www.w3.org/2000/svg">
    <title>ic-favourite-24px</title>
    <desc>Created with Sketch.</desc>
    <g id="Assets" stroke="none" stroke-width="1" fill="none" fill-rule="evenodd">
        <g transform="translate(-5.000000, -5.000000)" id="Favourite">
            <g transform="translate(5.000000, 5.000000)">
                <rect id="Grid" x="0" y="0" width="24" height="24"></rect>
                <path d="M11.99964,2.5 C11.8217225,2.5 11.6438049,2.64340992 11.5088043,2.93022976 L8.74337386,8.81134818 L2.55959314,9.75313163 C1.95625681,9.84538618 1.81958946,10.2852349 2.25375828,10.731642 L6.73044719,15.3111405 L5.67377528,21.7759548 C5.60044158,22.2319808 5.76710907,22.5 6.07002724,22.5 C6.18502782,22.5 6.31961182,22.4615242 6.46836256,22.379763 L11.99964,19.3283672 L17.5321675,22.379763 C17.6805016,22.4615242 17.8150856,22.5 17.9300862,22.5 C18.2330043,22.5 18.3996718,22.2319808 18.3263381,21.7759548 L17.2688329,15.3111405 L21.7463551,10.731642 C22.1809406,10.2852349 22.0430233,9.84538618 21.4409369,9.75313163 L15.2559062,8.81134818 L12.4904758,2.93022976 C12.3554751,2.64340992 12.1775576,2.5 11.99964,2.5" fill="#212121"></path>
            </g>
        </g>
    </g>
</svg>