<svg width="24" height="24" viewBox="0 0 24 24" fill="none" xmlns="http://www.w3.org/2000/svg">
<path fill-rule="evenodd" clip-rule="evenodd" d="M8 14C6.82728 14 5.80737 14.1384 5 14.3071V22C5 22.5523 4.55228 23 4 23C3.44772 23 3 22.5523 3 22V14.906V12V4.19564C3 3.41043 3.46316 2.70011 4.22082 2.49393C5.10015 2.25464 6.40955 2 8 2C9.5 2 10.75 2.5 12 3C13.25 3.5 14.5 4 16 4C17.3628 4 18.3129 3.79365 18.944 3.56841C19.3635 3.41869 20 3.76165 20 4.20711V14.1716C20 14.702 19.7797 15.2113 19.2955 15.4279C18.6882 15.6995 17.6447 16 16 16C14.5 16 13.25 15.5 12 15C10.75 14.5 9.5 14 8 14Z" fill="#292A2B"/>
</svg>
