<svg width="20" height="18" viewBox="0 0 20 18" fill="none"
    xmlns="http://www.w3.org/2000/svg">
    <path d="M4.03174 7.93604C6.06543 7.93604 7.75049 6.25098 7.75049 4.22559C7.75049 2.18359 6.06543 0.490234 4.03174 0.490234C1.98975 0.490234 0.312988 2.18359 0.312988 4.22559C0.312988 6.25098 1.99805 7.93604 4.03174 7.93604ZM3.5918 6.21777C3.40088 6.22607 3.25146 6.11816 3.12695 5.96875L2.19727 4.85645C2.09766 4.74854 2.06445 4.64893 2.06445 4.50781C2.06445 4.23389 2.28027 4.01807 2.5376 4.01807C2.71191 4.01807 2.81982 4.09277 2.94434 4.23389L3.5752 5.01416L5.05273 2.64844C5.16064 2.47412 5.31006 2.38281 5.48438 2.38281C5.75 2.38281 5.97412 2.58203 5.97412 2.83936C5.97412 2.95557 5.94092 3.05518 5.85791 3.19629L4.06494 5.95215C3.95703 6.12646 3.78271 6.22607 3.5918 6.21777ZM10.498 5.03076H18.8569C19.3135 5.03076 19.6787 4.67383 19.6787 4.22559C19.6787 3.76904 19.3135 3.41211 18.8569 3.41211H10.498C10.0498 3.41211 9.69287 3.76904 9.69287 4.22559C9.69287 4.67383 10.0498 5.03076 10.498 5.03076ZM4.03174 17.5234C6.06543 17.5234 7.75049 15.8384 7.75049 13.7964C7.75049 11.7627 6.06543 10.0859 4.03174 10.0859C1.98975 10.0859 0.312988 11.7627 0.312988 13.7964C0.312988 15.8384 1.99805 17.5234 4.03174 17.5234ZM4.03174 15.9629C2.85303 15.9629 1.87354 14.9751 1.87354 13.7964C1.87354 12.626 2.86133 11.6382 4.03174 11.6382C5.20215 11.6382 6.18994 12.626 6.18994 13.7964C6.18994 14.9751 5.20215 15.9629 4.03174 15.9629ZM10.498 14.6348H18.8569C19.3135 14.6348 19.6787 14.2778 19.6787 13.8296C19.6787 13.373 19.3135 13.0161 18.8569 13.0161H10.498C10.0498 13.0161 9.69287 13.373 9.69287 13.8296C9.69287 14.2778 10.0498 14.6348 10.498 14.6348Z" fill="black"/>
</svg>
