<svg width="16" height="16" viewBox="0 0 16 16" fill="none" xmlns="http://www.w3.org/2000/svg">
<path fill-rule="evenodd" clip-rule="evenodd" d="M8 16C12.4183 16 16 12.4183 16 8C16 3.58172 12.4183 0 8 0C3.58172 0 0 3.58172 0 8C0 12.4183 3.58172 16 8 16ZM7.51576 12.505C7.51576 12.8544 7.74499 13 8.0086 13C8.26648 13 8.4957 12.8544 8.4957 12.505V12.039C10.0372 11.8701 11 10.9499 11 9.61037C11 8.45719 10.3181 7.7583 8.90258 7.4438L7.73925 7.17589C7.01146 7.01281 6.65616 6.67501 6.65616 6.17997C6.65616 5.58591 7.16046 5.15492 7.95129 5.15492C8.59312 5.15492 9.04011 5.37624 9.53868 5.94118C9.79083 6.20909 9.98567 6.3081 10.2493 6.3081C10.5702 6.3081 10.8166 6.08096 10.8166 5.74316C10.8166 5.41701 10.6275 5.06174 10.3066 4.74141C9.88252 4.33372 9.24642 4.06581 8.53009 3.97263V3.48923C8.53009 3.1456 8.30086 3 8.03725 3C7.77937 3 7.55014 3.13978 7.55014 3.48923V3.95515C6.0659 4.09493 5.12034 4.99767 5.12034 6.29062C5.12034 7.4205 5.80229 8.17181 7.10888 8.46884L8.27221 8.74257C9.12034 8.94642 9.46991 9.24927 9.46991 9.76179C9.46991 10.4257 8.95989 10.8451 8.04871 10.8451C7.36676 10.8451 6.79943 10.583 6.28367 10.0181C5.9914 9.72103 5.83095 9.65696 5.61318 9.65696C5.26361 9.65696 5 9.8841 5 10.2743C5 10.6179 5.19484 10.9732 5.54441 11.2819C6.00287 11.707 6.7192 11.9691 7.51576 12.0448V12.505Z" fill="black"/>
</svg>
