<?xml version="1.0" encoding="UTF-8"?>
<svg width="26px" height="22px" viewBox="0 0 26 22" version="1.1" xmlns="http://www.w3.org/2000/svg" xmlns:xlink="http://www.w3.org/1999/xlink">
    <g stroke="none" stroke-width="1" fill="none" fill-rule="evenodd">
        <g id="Homepage-last-trip--TP" transform="translate(-138.000000, -430.000000)" fill="#272F38" fill-rule="nonzero">
            <g id="Journy-planner" transform="translate(78.000000, 413.000000)">
                <g id="Journey-planner" transform="translate(1.000000, 17.000000)">
                    <g id="np_map_888714_000000" transform="translate(59.000000, 0.000000)">
                        <path d="M21.1851852,10.5925926 C21.1851852,11.6790123 19.5555556,11.6790123 19.5555556,10.5925926 C19.5555556,9.50617284 21.1851852,9.50617284 21.1851852,10.5925926" id="Shape"></path>
                        <path d="M18.523349,0 L6.73591024,2.53839905 L0,0 L0,19.4616009 L6.73591024,22 L18.523349,19.4616009 L25.2592593,22 L25.2592593,2.53839905 L18.523349,0 Z M15.1562022,16.7534338 L10.1046736,17.8528652 L10.1046736,5.24494166 L15.1562022,4.14551026 L15.1562022,16.7534338 Z M20.2077307,15.2303943 C20.2077307,15.2303943 17.6819664,11.5925639 17.6819664,10.1535962 C17.6819664,8.71462856 18.7759255,7.61519716 20.2077307,7.61519716 C21.639536,7.61519716 22.733495,8.71462856 22.733495,10.1535962 C22.733495,11.5909799 20.2077307,15.2303943 20.2077307,15.2303943 Z" id="Shape"></path>
                    </g>
                </g>
            </g>
        </g>
    </g>
</svg>