<?xml version="1.0" encoding="UTF-8"?>
<svg width="4px" height="15px" viewBox="0 0 4 15" version="1.1" xmlns="http://www.w3.org/2000/svg" xmlns:xlink="http://www.w3.org/1999/xlink">
    <!-- Generator: Sketch 59.1 (86144) - https://sketch.com -->
    <title>person</title>
    <desc>Created with Sketch.</desc>
    <g id="Symbols" stroke="none" stroke-width="1" fill="none" fill-rule="evenodd">
        <g id="Misc-/-Seat---1" transform="translate(-1.000000, -5.000000)" fill="#000000">
            <path d="M1,14 L1,10 C1,9.44771525 1.44771525,9 2,9 L4,9 C4.55228475,9 5,9.44771525 5,10 L5,14 C5,14.5522847 4.55228475,15 4,15 L4,19 C4,19.5522847 3.55228475,20 3,20 C2.44771525,20 2,19.5522847 2,19 L2,15 C1.44771525,15 1,14.5522847 1,14 Z M3,5 C3.82842712,5 4.5,5.67157288 4.5,6.5 C4.5,7.32842712 3.82842712,8 3,8 C2.17157288,8 1.5,7.32842712 1.5,6.5 C1.5,5.67157288 2.17157288,5 3,5 Z" id="person"></path>
        </g>
    </g>
</svg>