<?xml version="1.0" encoding="UTF-8" standalone="no"?>
<svg width="24px" height="24px" viewBox="0 0 24 24" version="1.1" xmlns="http://www.w3.org/2000/svg" xmlns:xlink="http://www.w3.org/1999/xlink">
    <!-- Generator: Sketch 3.2.2 (9983) - http://www.bohemiancoding.com/sketch -->
    <desc>Created with Sketch.</desc>
    <defs></defs>
    <g id="Assets" stroke="none" stroke-width="1" fill="none" fill-rule="evenodd">
        <g transform="translate(-297.000000, -5.000000)" id="Pin">
            <g transform="translate(297.000000, 5.000000)">
                <rect id="Grid" fill-opacity="0" fill="grey" x="0" y="0" width="24" height="24"></rect>
                <path d="M8.4203732,7.48728408 C10.3975151,5.48573519 13.6026076,5.48573519 15.5796603,7.48719368 C17.5568022,9.48874258 17.5567576,12.7333553 15.5796603,14.7349494 C13.6024737,16.7364983 10.3973812,16.7364983 8.42023926,14.7349494 C6.44323126,12.7334909 6.44323126,9.48883298 8.4203732,7.48728408 L8.4203732,7.48728408 Z M18.3504712,17.1479782 C18.3549162,17.1436956 18.3595566,17.1395093 18.3639528,17.1350824 C21.8787964,13.672664 21.878601,8.05905774 18.3638551,4.59668748 C14.8492558,1.13446157 9.15082968,1.13436533 5.63603497,4.59683183 C2.12133796,8.05910586 2.12133796,13.6727121 5.63593728,17.1349862 L5.63593728,17.1349862 L5.63588843,17.1350824 L10.4331465,21.8608052 C11.298217,22.7130329 12.7010869,22.713081 13.5661574,21.8608533 L18.3504712,17.1479782 Z" fill="#b3b3b3"></path>
            </g>
        </g>
    </g>
</svg>