<svg width="12" height="12" viewBox="0 0 12 12" fill="none"
    xmlns="http://www.w3.org/2000/svg">
    <path fill-rule="evenodd" clip-rule="evenodd" d="M1 2.25C1 1.83579 1.33579 1.5 1.75 1.5C6.58249 1.5 10.5 5.41751 10.5 10.25C10.5 10.6642 10.1642 11 9.75 11C9.33579 11 9 10.6642 9 10.25C9 6.24594 5.75406 3 1.75 3C1.33579 3 1 2.66421 1 2.25ZM1 5.75C1 5.33579 1.33579 5 1.75 5C4.64949 5 7 7.3505 7 10.25C7 10.6642 6.66421 11 6.25 11C5.83579 11 5.5 10.6642 5.5 10.25C5.5 8.17893 3.82107 6.5 1.75 6.5C1.33579 6.5 1 6.16421 1 5.75ZM2.25 11C2.94036 11 3.5 10.4404 3.5 9.75C3.5 9.05964 2.94036 8.5 2.25 8.5C1.55964 8.5 1 9.05964 1 9.75C1 10.4404 1.55964 11 2.25 11Z" fill="black"/>
</svg>