<svg width="24" height="24" viewBox="0 0 24 24" fill="none" xmlns="http://www.w3.org/2000/svg">
    <path fill-rule="evenodd" clip-rule="evenodd" d="M11.939 4C7.508 4 3.565 6.064 1 9.276L3.251 11.277C5.265 8.681 8.406 7 11.939 7C15.472 7 18.613 8.681 20.627 11.277L22.878 9.276C20.313 6.064 16.37 4 11.939 4ZM11.939 16C10.835 16 9.939 16.896 9.939 18C9.939 19.104 10.835 20 11.939 20C13.043 20 13.939 19.104 13.939 18C13.939 16.896 13.043 16 11.939 16ZM5.496 13.272C6.952 11.291 9.292 10 11.939 10C14.586 10 16.926 11.291 18.382 13.272L16.124 15.28C15.231 13.911 13.692 13 11.939 13C10.186 13 8.647 13.911 7.754 15.28L5.496 13.272Z" fill="black"/>
</svg>