<?xml version="1.0" encoding="UTF-8"?>
<svg width="64px" height="64px" viewBox="0 0 64 64" version="1.1" xmlns="http://www.w3.org/2000/svg" xmlns:xlink="http://www.w3.org/1999/xlink">
    <title>placeholder-shuttle</title>
    <g id="placeholder-shuttle" stroke="none" stroke-width="1" fill="none" fill-rule="evenodd" fill-opacity="0.18">
        <path d="M32,0 C49.673112,0 64,14.326888 64,32 C64,49.673112 49.673112,64 32,64 C14.326888,64 0,49.673112 0,32 C0,14.326888 14.326888,0 32,0 Z M36.6873485,14.0008199 L27.3123636,14.0008199 C23.2562714,14.0153052 19.1418929,14.2856964 18.133,19.333 L18.133,19.333 L16.773,28 L14,28 L13.8506842,28.0054832 C12.8154855,28.0817975 12,28.9452273 12,30 C12,30.553 12.447,31 13,31 L13,31 L16.303,31 L16,32.934 L16,42 L16.0048047,42.2498659 C16.1126531,45 18,45 18,45 L18,45 L18.0004738,46.8280304 C18.0087655,47.1374909 18.1621622,50 21,50 C24,50 24,46.801 24,46.801 L24,46.801 L24,45 L40,45 L40.0004738,46.8280304 C40.0087655,47.1374909 40.1621622,50 43,50 C46,50 46,46.801 46,46.801 L46,46.801 L46,45 C46.1126531,44.997551 48,44.9142857 48,42 L48,42 L48,32.822 L47.712,31 L51,31 L51.1167533,30.9932824 C51.6145765,30.935602 52,30.5135 52,30 C52,28.895 51.105,28 50,28 L50,28 L47.237,28 L45.867,19.333 L45.8077737,19.0574801 C44.7056775,14.2757697 40.6668522,14.0150369 36.6873485,14.0008199 L36.6873485,14.0008199 Z M45,35 C45.551,35 46,35.447 46,36 L46,36 L46,37 L45.993254,37.1167533 C45.9353367,37.6145765 45.5116429,38 45,38 L45,38 L38.998,38 L38.8812467,37.9932824 C38.3834235,37.935602 37.998,37.5135 37.998,37 C37.998,35.896 38.893,35 39.998,35 L39.998,35 Z M24.002,35 C25.109,35 26.002,35.896 26.002,37 C26.002,37.553 25.555,38 25.002,38 L25.002,38 L19,38 L18.8836163,37.9932824 C18.387148,37.935602 18,37.5135 18,37 L18,37 L18,36 L18.006746,35.8832467 C18.0646633,35.3854235 18.4883571,35 19,35 L19,35 Z M41.9975391,18 C42.5511834,18 43.0688453,18.4474894 43.1519673,18.987783 L43.1519673,18.987783 L44.848033,30.012217 L44.8586782,30.1198469 C44.8801129,30.614755 44.5119194,31 43.9966999,31 L43.9966999,31 L20.0032996,31 L19.8948808,30.9941386 C19.4005393,30.9399223 19.074386,30.516491 19.1519666,30.012217 L19.1519666,30.012217 L20.8480333,18.987783 L20.8723671,18.8725866 C21.0047448,18.3813239 21.4796728,18 22.0024617,18 L22.0024617,18 Z" id="Combined-Shape" fill="#292A2B"></path>
    </g>
</svg>