<svg xmlns="http://www.w3.org/2000/svg" width="24" height="24" viewBox="0 0 24 24">
  <path fill="#212A33" fill-rule="evenodd" d="M10,2 C14.4176842,2 18,5.58231579 18,10 C18,11.6672095 17.4898803,13.2153432 16.6172498,14.4968598 L21.4266711,19.3053507 C21.9747845,19.8534642 22.0118244,20.7180642 21.5282751,21.3100364 L21.4246212,21.4246212 C20.8388348,22.0104076 19.8890285,22.0103489 19.3053507,21.4266711 L14.496675,16.6173618 C13.2151453,17.4899402 11.6670506,18 10,18 C5.58231579,18 2,14.4181053 2,10 C2,5.58231579 5.58231579,2 10,2 Z M10,4 C6.68661538,4 4,6.68569231 4,10 C4,13.3152308 6.68661538,16 10,16 C13.3133846,16 16,13.3152308 16,10 C16,6.68569231 13.3133846,4 10,4 Z"/>
</svg>
