<svg width="24" height="24" viewBox="0 0 24 24" fill="none"
    xmlns="http://www.w3.org/2000/svg">
    <path fill-rule="evenodd" clip-rule="evenodd" d="M12 2C17.5228 2 22 6.47778 22 12C22 17.5222 17.5228 22 12 22C6.57083 22 2.15207 17.6727 2.00384 12.2799L2 11.999L2.0161 11.981L1.00168 11.9812C0.172323 11.9812 -0.138668 11.4153 0.311661 10.71L2.18788 7.77128C2.63615 7.06917 3.36097 7.06594 3.81142 7.77128L5.68813 10.71C6.13651 11.4121 5.82881 11.9812 4.99832 11.9812L3.9811 11.981L3.9991 11.999C4 16.3338 7.44893 19.8645 11.7509 19.9962L12 20C16.4171 20 20 16.4171 20 12C20 7.58286 16.4171 4 12 4C9.35142 4 7.00279 5.28817 5.54667 7.27197L4.42358 5.47332C6.25741 3.34649 8.9715 2 12 2ZM12 6C12.4142 6 12.75 6.33579 12.75 6.75L12.7491 8H13.75C14.3023 8 14.75 8.44772 14.75 9C14.75 9.51284 14.364 9.93551 13.8666 9.99327L13.75 10H11.5C11.2239 10 11 10.2239 11 10.5C11 10.7455 11.1769 10.9496 11.4101 10.9919L11.5 11H13C14.3807 11 15.5 12.1193 15.5 13.5C15.5 14.8255 14.4685 15.91 13.1644 15.9947L13 16H12.7491L12.75 17.25C12.75 17.6642 12.4142 18 12 18C11.5858 18 11.25 17.6642 11.25 17.25L11.2491 16H10C9.44771 16 9 15.5523 9 15C9 14.4872 9.38604 14.0645 9.88338 14.0067L10 14H13C13.2761 14 13.5 13.7761 13.5 13.5C13.5 13.2545 13.3231 13.0504 13.0899 13.0081L13 13H11.5C10.1193 13 9 11.8807 9 10.5C9 9.20384 9.98641 8.13806 11.2495 8.01239L11.25 6.75C11.25 6.33579 11.5858 6 12 6Z" fill="black"/>
</svg>
