<?xml version="1.0" encoding="UTF-8"?>
<svg width="17px" height="16px" viewBox="0 0 17 16" version="1.1" xmlns="http://www.w3.org/2000/svg" xmlns:xlink="http://www.w3.org/1999/xlink">
    <!-- Generator: Sketch 51.1 (57501) - http://www.bohemiancoding.com/sketch -->
    <desc>Created with Sketch.</desc>
    <defs></defs>
    <g stroke="none" stroke-width="1" fill="none" fill-rule="evenodd">
        <g id="Homepage-last-trip--TP" transform="translate(-459.000000, -599.000000)" fill-rule="nonzero" stroke="#0042AC">
            <g id="np_star_1208084_000000" transform="translate(460.000000, 600.000000)">
                <path d="M7.48463739,0.000261712037 C7.34215117,0.00612747267 7.2183088,0.0980255016 7.17436672,0.230981185 L5.56906586,5.10215201 L0.341696287,5.09172392 C0.193883497,5.09172392 0.0620555366,5.18492438 0.0167839388,5.32244339 C-0.0291575285,5.46061646 0.0214447316,5.61117643 0.141292764,5.69655332 L4.37732344,8.69650713 L2.75071629,13.5625056 C2.70477483,13.7000263 2.75471114,13.8512387 2.87455866,13.9359648 C2.99374091,14.0213451 3.15619368,14.0213451 3.27538957,13.9359648 L7.49931827,10.9189924 L11.7246106,13.9359648 C11.8437928,14.0213451 12.0062456,14.0213451 12.1254415,13.9359648 C12.2452885,13.851237 12.2952253,13.700023 12.2492838,13.5625056 L10.6226767,8.69650713 L14.8587074,5.69655332 C14.9785544,5.6111731 15.0291577,5.46061146 14.9832162,5.32244339 C14.9372747,5.18492271 14.8061013,5.09172392 14.6583039,5.09237463 L9.43093428,5.10280273 L7.82363915,0.231631898 L7.82363915,0.230980184 C7.77636647,0.0882454519 7.63788243,-0.00561239107 7.48473284,0.00026071094 L7.48463739,0.000261712037 Z" id="Shape"></path>
            </g>
        </g>
    </g>
</svg>