<svg width="24" height="24" viewBox="0 0 24 24" fill="none" xmlns="http://www.w3.org/2000/svg">
<g id="Tickets">
<path id="Color" fill-rule="evenodd" clip-rule="evenodd" d="M19.5607 6.56066L21.2903 8.29028C21.6811 8.68104 21.683 9.31706 21.2919 9.70817L9.7082 21.2918C9.32138 21.6786 8.68228 21.6822 8.29031 21.2903L6.56069 19.5607C6.83214 19.2892 7.00003 18.9142 7.00003 18.5C7.00003 17.6716 6.32846 17 5.50003 17C5.08581 17 4.71081 17.1679 4.43937 17.4393L2.70975 15.7097C2.31899 15.319 2.31709 14.6829 2.7082 14.2918L14.2919 2.70817C14.6787 2.32135 15.3178 2.31775 15.7097 2.70972L17.4394 4.43934C17.1679 4.71079 17 5.08579 17 5.5C17 6.32843 17.6716 7 18.5 7C18.9142 7 19.2892 6.83211 19.5607 6.56066ZM12.7944 6.70558L6.70561 12.7944C6.31593 13.1841 6.32366 13.8236 6.70315 14.2031L9.7969 17.2969C10.1852 17.6852 10.8223 17.6777 11.2056 17.2944L17.2944 11.2056C17.6841 10.8159 17.6764 10.1764 17.2969 9.79688L14.2032 6.70313C13.8148 6.3148 13.1778 6.32227 12.7944 6.70558ZM16.5 10.5L10.5 16.5L7.50003 13.5L13.5 7.5L16.5 10.5Z" fill="#292A2B"/>
</g>
</svg>
