<svg xmlns="http://www.w3.org/2000/svg" viewBox="0 0 200 200"><defs><style>.cls-2{fill:#b5c0c6}.cls-3{fill:#d2d5d8}.cls-5{fill:#bdc8d0}.cls-6{fill:#ffc160}.cls-7{fill:#fff}.cls-8{fill:#ffe5bd}.cls-9{fill:#ffae30}.cls-10{fill:#ffd088}.cls-11{fill:#fef7e7}</style></defs><g id="Layer_2" data-name="Layer 2"><g id="Cone"><circle cx="100" cy="100" r="100" fill="#e5f7e3"/><path class="cls-2" d="M53 140h100v8H53z"/><path class="cls-3" d="M53 58h2v6h-2zM150 58h2v6h-2z"/><circle cx="55" cy="142" r="2" fill="#dce2e7"/><rect class="cls-5" x="50" y="63" width="8" height="96" rx="2"/><rect class="cls-5" x="147" y="63" width="8" height="96" rx="2"/><rect class="cls-6" x="40" y="68" width="120" height="26" rx="4"/><path class="cls-2" d="M147 72h8v26h-8zM50 72h8v26h-8zM147 110h8v26h-8zM50 110h8v26h-8z"/><rect class="cls-7" x="40" y="68" width="120" height="26" rx="4"/><rect class="cls-7" x="40" y="105" width="120" height="26" rx="4"/><path class="cls-6" d="M63.48 68l-6.96 26h12l6.96-26h-12zM44 68a4 4 0 00-4 4v18a4 4 0 004 4h1.52l7-26zM86.48 68l-6.96 26h12l6.96-26h-12zM160 90V72a4 4 0 00-4-4h-.52l-7 26H156a4 4 0 004-4zM109.48 68l-6.96 26h12l6.96-26h-12zM132.48 68l-6.96 26h12l6.96-26h-12zM63.48 105l-6.96 26h12l6.96-26h-12zM44 105a4 4 0 00-4 4v18a4 4 0 004 4h1.52l7-26zM86.48 105l-6.96 26h12l6.96-26h-12zM160 127v-18a4 4 0 00-4-4h-.52l-7 26H156a4 4 0 004-4zM109.48 105l-6.96 26h12l6.96-26h-12zM132.48 105l-6.96 26h12l6.96-26h-12z"/><circle class="cls-6" cx="54" cy="54" r="6"/><circle class="cls-6" cx="151" cy="54" r="6"/><circle class="cls-8" cx="54" cy="54" r="3"/><circle class="cls-8" cx="151" cy="54" r="3"/><path class="cls-9" d="M173.79 159h-19.12l7.55-27.33a.91.91 0 01.88-.67h2.26a.91.91 0 01.88.67z"/><rect class="cls-10" x="150.68" y="156.27" width="27.32" height="2.73" rx="1.37"/><path class="cls-11" d="M171.71 151.49l-1.51-5.47h-11.95l-1.5 5.47h14.96zM168.5 139.88l-1.32-4.78h-5.9l-1.33 4.78h8.55z"/><path class="cls-9" d="M34.6 154.61l8.14-17.7 22.09 18.63a.94.94 0 01.25 1.1l-1 2.09a1 1 0 01-1 .53z"/><rect class="cls-10" x="25.97" y="145.06" width="27.84" height="2.78" rx="1.39" transform="rotate(114.7 39.895 146.442)"/><path class="cls-11" d="M57.65 149.48l-3.81 8.27 5.71.92 2.51-5.47-4.41-3.72zM42.44 155.89l5.7.93 5.09-11.07-4.42-3.72-6.37 13.86z"/><path d="M180.74 159H19.26a100 100 0 00161.48 0z" fill="#98efbb"/></g></g></svg>