<svg width="24" height="24" viewBox="0 0 24 24" fill="none" xmlns="http://www.w3.org/2000/svg">
    <path fill-rule="evenodd" clip-rule="evenodd" d="M11.2328 14.638L13.6261 11.2189H10.096L11.2328 14.638ZM17.2825 14.519C16.4559 15.1613 15.9231 16.1734 15.9231 17.3125C15.9231 19.2555 17.472 20.8286 19.3846 20.8286C21.2968 20.8286 22.8462 19.2555 22.8462 17.3125C22.8462 15.3705 21.2968 13.7973 19.3846 13.7973C18.9646 13.7973 18.5621 13.8732 18.1897 14.0122L19.3844 16.8439L19.6397 17.3619C19.7537 17.5944 19.6614 17.8751 19.4334 17.9909L19.336 18.0406C19.108 18.1564 18.8306 18.0631 18.7166 17.8306L18.4614 17.3126L17.2825 14.519ZM16.8174 13.4167L15.9843 11.4425L11.8198 17.4097C11.6647 17.615 11.332 17.7814 11.0767 17.7814H9.20796C8.97626 20.1498 7.00819 22 4.61538 22C2.06677 22 0 19.9009 0 17.3125C0 14.7241 2.06677 12.625 4.61538 12.625C5.4587 12.625 6.24926 12.8548 6.92964 13.2562L8.81705 10.8162L8.30751 9.34389H7.38443C7.12966 9.34389 6.92289 9.13436 6.92289 8.87514C6.92289 8.61592 7.12966 8.40639 7.38443 8.40639H10.1537C10.4089 8.40639 10.6152 8.61592 10.6152 8.87514C10.6152 9.13436 10.4089 9.34389 10.1537 9.34389H9.40366L9.74981 10.2814H15.4946L14.6874 8.36842C14.5872 8.13077 14.2987 7.93764 14.044 7.93764H13.3844C13.1297 7.93764 12.9229 7.72811 12.9229 7.46889C12.9229 7.20967 13.1297 7.00014 13.3844 7.00014H14.3075C14.8175 7.00014 15.3935 7.38592 15.5947 7.8617L17.7346 12.9335C18.247 12.7342 18.8033 12.625 19.3846 12.625C21.9332 12.625 24 14.7241 24 17.3125C24 19.9009 21.9332 22 19.3846 22C16.836 22 14.7692 19.9009 14.7692 17.3125C14.7692 15.689 15.5823 14.258 16.8174 13.4167ZM6.20723 14.19C5.73071 13.9391 5.18939 13.7973 4.61538 13.7973C2.70277 13.7973 1.15385 15.3705 1.15385 17.3125C1.15385 19.2555 2.70277 20.8286 4.61538 20.8286C6.37107 20.8286 7.82092 19.5024 8.04645 17.7814H4.6152C4.36043 17.7814 4.15366 17.5719 4.15366 17.3126V17.0783C4.15366 16.9494 4.28151 16.6794 4.43935 16.4755L6.20723 14.19ZM7.02752 14.7909L5.43951 16.8439H8.04646C7.94144 16.0427 7.57087 15.327 7.02752 14.7909ZM7.74315 13.8658C8.55164 14.623 9.09319 15.6698 9.20798 16.8439H10.9037L9.21443 11.9637L7.74315 13.8658ZM1 7.00014L5 1.00014L4.5 5.00014H7L3 11.0001L3.5 7.00014H1ZM21.437 4.28391C21.8405 4.28391 22.167 3.95791 22.167 3.55441C22.167 3.15241 21.8405 2.82541 21.437 2.82541C21.034 2.82541 20.708 3.15241 20.708 3.55441C20.708 3.95791 21.034 4.28391 21.437 4.28391ZM20.5005 1.05441C21.881 1.05441 23 2.17441 23 3.55541C23 4.93591 21.881 6.05441 20.5005 6.05441C19.575 6.05441 18.7695 5.55091 18.337 4.80441H17.4445L16.75 3.97141H16.0555L15.3605 4.80441H14.667L13.961 3.97141H13.2665L12.583 4.80441H11.75L10.5 3.55441V3.13791L11.333 2.30441H18.338C18.77 1.55841 19.5755 1.05441 20.5005 1.05441Z" fill="white"/>
</svg>