<?xml version="1.0" encoding="UTF-8" standalone="no"?>
<svg width="24px" height="24px" viewBox="0 0 14 14" version="1.1" xmlns="http://www.w3.org/2000/svg" xmlns:xlink="http://www.w3.org/1999/xlink" xmlns:sketch="http://www.bohemiancoding.com/sketch/ns">
    <!-- Generator: Sketch 3.2.2 (9983) - http://www.bohemiancoding.com/sketch -->
    <title>ic-bus-24px</title>
    <desc>Created with Sketch.</desc>
    <defs></defs>
    <g id="Assets" stroke="none" stroke-width="1" fill="none" fill-rule="evenodd">
        <g transform="translate(-34.000000, -92.000000)" id="Bus">
            <g transform="translate(34.000000, 92.000000)">
                <rect id="Grid" x="0" y="0" width="24" height="24"></rect>
                <path d="M11.0849621,3.79603899 C11.423947,3.89313128 11.7011818,3.97766688 11.9166667,4.04964579 C12.4062348,4.21337804 12.8030303,4.74491461 12.8030303,5.23611135 L12.8030303,6.8675015 C12.8030303,7.11221002 12.6035985,7.31242609 12.3598485,7.31242609 C12.1160985,7.31242609 11.9166667,7.11221002 11.9166667,6.8675015 L11.9166668,5.18158912 C11.9166668,4.99137429 11.816893,4.81509874 11.6538118,4.71718962 L11.6538118,4.71718962 L11.1357803,4.4061789 C11.2311136,5.74846694 11.2566863,7.07835192 11.2124983,8.39583384 L11.2124983,10.4541683 C11.2124983,10.9627296 10.800228,11.375 10.2916667,11.375 L10.2916667,12.2153144 C10.2916667,12.2153144 10.2916667,13 9.47916667,13 C8.66666667,13 8.66666667,12.2153144 8.66666667,12.2153144 L8.66666667,11.375 L4.33333333,11.3749995 L4.33333333,12.2153139 C4.33333333,12.2153139 4.33333333,12.9999995 3.52083333,12.9999995 C2.70833333,12.9999995 2.70833333,12.2153139 2.70833333,12.2153139 L2.70833333,11.3749995 C2.70833333,11.3749995 2.70833333,11.3749995 2.70833333,11.3749995 C2.19977204,11.3749995 1.78750165,10.9627291 1.78750165,10.4541679 L1.78750165,10.4541679 L1.78750165,8.39583338 C1.76143489,7.04374622 1.79124242,5.71247703 1.87692424,4.40202582 L1.34768712,4.71744713 C1.18375621,4.81514871 1.08333333,4.99190564 1.08333333,5.18274311 L1.08333333,5.18274311 L1.08333333,6.8675015 C1.08333333,7.11221002 0.883901515,7.31242609 0.640151515,7.31242609 C0.396401515,7.31242609 0.196969697,7.11221002 0.196969697,6.8675015 L0.196969697,5.23611135 C0.196969697,4.74491461 0.593765152,4.21337804 1.08333333,4.04964579 C1.41276515,3.93930449 1.77056061,3.84438701 1.92331061,3.79336899 C1.95669697,3.42170865 1.89583352,2.97916665 2.16666673,2.16666665 C2.43749993,1.35416665 3.24999981,0.541666654 6.5,0.541666654 C9.75000019,0.541666654 10.5625002,1.35416665 10.8333335,2.16666665 C11.1041669,2.97916665 11.058245,3.52466155 11.0849621,3.79603899 Z M2.70833333,7.58333333 L2.70833333,7.58333333 C2.70833333,7.88248757 2.95084576,8.125 3.25,8.125 L3.25,8.125 L9.75,8.125 C10.0491542,8.125 10.2916667,7.88248757 10.2916667,7.58333333 L10.2916667,6.20193255 C10.2916667,6.19269483 10.2914304,6.18345863 10.290958,6.174233 L10.290958,6.174233 C10.192676,4.25483688 10.1009933,3.15467718 10.0159099,2.87375389 C9.72045537,1.89598159 9.20833333,1.625 6.5,1.625 C3.79166667,1.625 3.27954463,1.89598159 2.98409008,2.87375389 C2.89940026,3.15359146 2.80771919,4.25373545 2.70904689,6.17418586 C2.70857126,6.18344291 2.70833333,6.19271064 2.70833333,6.2019799 L2.70833333,6.2019799 L2.70833333,7.58333333 Z M10.2916667,9.75 L10.2916667,9.47916667 C10.2916667,9.32966667 10.1590076,9.20833333 9.99621212,9.20833333 L8.71590909,9.20833333 C8.38913636,9.20833333 8.125,9.451 8.125,9.75 C8.125,9.90004167 8.25677273,10.0208333 8.42045455,10.0208333 L9.99621212,10.0208333 C10.1590076,10.0208333 10.2916667,9.90004167 10.2916667,9.75 Z M3.00378788,10.0208333 L4.57954545,10.0208333 C4.74293182,10.0208333 4.875,9.90004167 4.875,9.75 C4.875,9.451 4.61086364,9.20833333 4.28409091,9.20833333 L3.00378788,9.20833333 C2.84099242,9.20833333 2.70833333,9.32966667 2.70833333,9.47916667 L2.70833333,9.75 C2.70833333,9.90004167 2.84099242,10.0208333 3.00378788,10.0208333 Z" fill="#fff"/>
            </g>
        </g>
    </g>
</svg>