<svg width="24" height="24" viewBox="0 0 24 24" fill="none" xmlns="http://www.w3.org/2000/svg">
    <path fill-rule="evenodd" clip-rule="evenodd" d="M20.56 16.04C20.38 16.01 20.19 16 20 16C19.5 16 19.02 16.09 18.58 16.27C17.07 16.84 16 18.29 16 20H8C8 17.791 6.209 16 4 16C3.448 16 3 15.553 3 15C3 14.447 3.448 14 4 14C6.611 14 8.827 15.671 9.651 18H14.346C14.99 16.183 16.483 14.766 18.35 14.23L17.2 4H15C14.447 4 14 3.553 14 3C14 2.447 14.447 2 15 2H18.99L20.56 16.04ZM4 18C2.896 18 2 18.896 2 20C2 21.104 2.896 22 4 22C5.104 22 6 21.104 6 20C6 18.896 5.104 18 4 18ZM20 18C18.896 18 18 18.896 18 20C18 21.104 18.896 22 20 22C21.104 22 22 21.104 22 20C22 18.896 21.104 18 20 18Z" fill="white"/>
</svg>
