<svg height="25" viewBox="0 0 21 25" width="21" xmlns="http://www.w3.org/2000/svg"><g fill="#fff" fill-rule="evenodd"><path d="m6.6167 17.9805h7.294c1.72 0 4.303-1.379 4.159-3.125l-1.036-12.488c-.102-1.167-.937-2.085-2.084-2.085h-9.373c-1.144 0-1.989.918-2.082 2.085l-1.044 12.488c-.151 1.737 2.446 3.125 4.166 3.125zm1.043-2.08c-.574 0-1.043-.466-1.043-1.045 0-.567.469-1.035 1.043-1.035.58 0 1.048.468 1.048 1.035 0 .579-.468 1.045-1.048 1.045zm5.209 0c-.58 0-1.042-.466-1.042-1.045 0-.567.462-1.035 1.042-1.035.575 0 1.042.468 1.042 1.035 0 .579-.467 1.045-1.042 1.045zm-3.644-14.58h2.084c.28 0 .518.235.518.526 0 .284-.238.521-.518.521h-2.084c-.286 0-.517-.237-.517-.521 0-.291.231-.526.517-.526zm-4.105 2.611c.025-.287.278-.528.568-.528h9.16c.282 0 .546.241.557.528l.553 7.284c.019.289-.198.516-.491.516h-10.401c-.292 0-.508-.227-.485-.516z"/><path d="m18.063 24.23h2.091l-4.163-5.212h-2.086l1.472 1.842h-10.236l1.468-1.842h-2.08l-4.164 5.212h2.086l1.471-1.841h12.673z"/></g></svg>