<?xml version="1.0" encoding="UTF-8" standalone="no"?>
<svg xmlns="http://www.w3.org/2000/svg" xmlns:xlink="http://www.w3.org/1999/xlink" width="91px" height="65px" viewBox="25 52 120 65" version="1.1">
    <g id="UI-Guidelines" stroke="none" stroke-width="1" fill="none" fill-rule="evenodd">
        <g transform="translate(-440.000000, -1451.000000)">
            <g id="usersnap_bubbles" transform="translate(441.000000, 1452.000000)">
                
                <g id="usersnap-logo-no-text" transform="translate(27.000000, 45.000000)">
                    <g id="Group-3">
                        <!--<mask id="mask-2" fill="white">-->
                            <!--<path d="M0,0.405964912 L113.410046,0.405964912 L113.410046,78 L0,78"></path>-->
                        <!--</mask>-->
                        <g id="Clip-2"></g>
                        <path d="M87.3947945,56.0861053 C80.7881735,56.6289123 74.1815525,57.1762807 67.5749315,57.7327719 C59.7580365,58.3850526 51.9411416,59.0510175 44.1242466,59.7078596 C39.096621,60.1320702 34.0646575,60.5334737 29.037032,60.9713684 C27.7356621,61.0854035 27.1717352,60.5973333 27.1413699,59.1559298 C26.9721918,51.9215439 26.7336073,44.6825965 26.5253881,37.4436491 C26.3778995,32.4124211 26.2130594,27.3857544 26.0959361,22.3499649 C26.0308676,19.3713684 26.0699087,19.3394386 28.8505023,19.3941754 C39.5651142,19.6085614 50.279726,19.8503158 60.9943379,20.0692632 C61.5278995,20.0829474 62.0614612,19.9962807 62.7902283,19.9369825 L62.7902283,13.8475088 C64.3258447,13.8475088 65.6575799,13.8018947 66.9849772,13.8566316 C69.5616895,13.9706667 72.1340639,14.189614 74.7064384,14.2625965 C76.0294977,14.2990877 76.5847489,14.8418947 76.4979909,16.2376842 C76.4285845,17.4190877 76.4849772,18.609614 76.4849772,19.9689123 C78.0509589,20.0829474 79.4260731,20.2289123 80.8055251,20.2745263 C82.6100913,20.3338246 84.4146575,20.3475088 86.2192237,20.3110175 C87.3904566,20.2836491 88.0107763,20.689614 88.0368037,22.0215439 C88.149589,28.4850526 88.2884018,34.9531228 88.4358904,41.4166316 C88.5356621,45.7499649 88.6441096,50.0878596 88.7829224,54.421193 C88.8132877,55.4931228 88.3881735,56.004 87.3947945,56.0861053 M102.642511,64.8166316 C101.662146,63.2748772 100.97242,61.5232982 100.326073,60.2232982 C102.416941,57.8604912 104.243196,55.8990877 105.956667,53.8373333 C109.730639,49.2850526 112.320365,44.1352281 112.528584,37.9636491 C112.767169,30.6790877 109.765342,24.7538246 105.141142,19.649614 C98.1614612,11.9362807 89.3945662,7.36119298 79.8338356,4.40084211 C64.8680822,-0.23354386 49.7721918,-1.16863158 34.6112329,3.36084211 C25.280411,6.14785965 16.9039269,10.7822456 10.0760731,18.1762807 C4.94,23.741193 1.52173516,30.2594386 0.406894977,38.0047018 C0.198675799,39.3822456 0.0642009132,40.0938246 0.0642009132,41.5945263 C-0.0138812785,43.0632982 -0.0702739726,44.0850526 0.198675799,45.8822456 C0.862374429,49.8369825 1.93383562,53.641193 3.91191781,57.1215439 C8.19776256,64.6432982 14.5744749,69.5513684 22.0877169,72.9222456 C31.7742466,77.2692632 41.946621,78.4780351 52.3922831,77.8394386 C64.4950228,77.1004912 75.7909132,73.186807 86.8525571,68.3152281 C87.1605479,68.178386 87.4685388,68.0461053 87.7765297,67.9275088 C87.8806393,67.8864561 87.9934247,67.8864561 88.3794977,67.8271579 C95.6281279,73.7706667 104.1521,75.9692632 113.413516,75.4082105 L113.413516,75.1755789 C109.305525,72.3155789 105.423105,69.1773333 102.642511,64.8166316" id="Fill-1" fill="#333333"></path>
                    </g>
                    <path d="M56.0948124,47.9393408 C51.2731439,47.9531254 47.8194207,44.291004 47.8058767,39.1447355 C47.7923327,33.7181791 51.1828505,29.9228061 56.058695,29.9136164 C61.5033881,29.9044266 66.1805871,33.9341386 66.1896165,38.6484882 C66.2031605,43.8269208 61.7471803,47.9255561 56.0948124,47.9393408 M56.1399591,24.0000025 C48.0722423,23.9954076 42.0000099,30.4006739 42.0000099,38.9195862 C41.9909806,47.3557907 48.1354477,53.995396 55.9503429,53.9999909 C64.7088044,54.0091807 72.0045126,47.0617182 71.9999979,38.7082216 C71.9999979,30.671772 64.8126419,24.0045974 56.1399591,24.0000025" id="Fill-4" fill="#333333"></path>
                </g>                
            </g>
        </g>
    </g>
</svg>