<svg width="111" height="32" xmlns="http://www.w3.org/2000/svg">
    <g fill="none" fill-rule="evenodd">
        <circle fill="#23B15E" cx="16" cy="16" r="16"/>
        <path d="M21.333 8A2.667 2.667 0 0 1 24 10.667V16a8 8 0 1 1-8-8h5.333zM16 11.333a4.667 4.667 0 1 0 0 9.334 4.667 4.667 0 0 0 0-9.334z"
              fill="#FFF"/>
        <path d="M45.184 21.108c.312 0 .573-.105.783-.315.21-.21.315-.459.315-.747v-9.162h2.79c.252 0 .471-.09.657-.27a.89.89 0 0 0 .279-.666.92.92 0 0 0-.279-.675.899.899 0 0 0-.657-.279h-7.74a.905.905 0 0 0-.666.27.884.884 0 0 0-.27.648c0 .288.09.522.27.702.18.18.402.27.666.27h2.79v9.162c0 .288.105.537.315.747.21.21.459.315.747.315zm14.986 0c.324 0 .582-.111.774-.333.192-.222.288-.459.288-.711 0-.18-.048-.354-.144-.522l-1.998-3.24a3.518 3.518 0 0 0 1.935-1.062c.27-.288.483-.639.639-1.053.156-.414.234-.885.234-1.413 0-.552-.093-1.059-.279-1.521a3.572 3.572 0 0 0-.792-1.206 3.4 3.4 0 0 0-1.242-.783 4.607 4.607 0 0 0-1.611-.27H53.96c-.36 0-.666.126-.918.378a1.25 1.25 0 0 0-.378.918v9.756c0 .3.102.552.306.756.204.204.45.306.738.306.312 0 .573-.102.783-.306.21-.204.315-.456.315-.756v-3.51h2.07l2.394 4.05a1.04 1.04 0 0 0 .9.522zm-2.502-6.462h-2.862v-3.762h2.862c.588 0 1.074.171 1.458.513.384.342.576.801.576 1.377 0 .564-.192 1.017-.576 1.359-.384.342-.87.513-1.458.513zm8.38 6.462c.312 0 .573-.102.783-.306.21-.204.315-.456.315-.756V9.93c0-.288-.102-.534-.306-.738a1.027 1.027 0 0 0-.756-.306c-.3 0-.555.102-.765.306a.992.992 0 0 0-.315.738v10.116c0 .3.102.552.306.756.204.204.45.306.738.306zm5.698 0c.312 0 .573-.102.783-.306.21-.204.315-.456.315-.756v-3.51h3.168c.624 0 1.179-.102 1.665-.306a3.799 3.799 0 0 0 1.233-.81 3.33 3.33 0 0 0 .765-1.197c.174-.462.261-.945.261-1.449 0-.516-.087-1.002-.261-1.458a3.598 3.598 0 0 0-.756-1.206 3.442 3.442 0 0 0-1.233-.819c-.492-.198-1.05-.297-1.674-.297h-4.014c-.36 0-.666.126-.918.378a1.25 1.25 0 0 0-.378.918v9.756c0 .3.102.552.306.756.204.204.45.306.738.306zm3.978-6.462h-2.88v-3.762h2.88c.588 0 1.071.171 1.449.513.378.342.567.801.567 1.377 0 .564-.189 1.017-.567 1.359-.378.342-.861.513-1.449.513zm12.718 6.588a7.32 7.32 0 0 0 1.746-.216 5.967 5.967 0 0 0 1.593-.63 3.829 3.829 0 0 0 1.161-1.017c.3-.402.45-.855.45-1.359v-2.178c0-.36-.126-.666-.378-.918a1.25 1.25 0 0 0-.918-.378h-3.564a.875.875 0 0 0-.657.27.9.9 0 0 0-.261.648c0 .288.087.522.261.702.174.18.393.27.657.27h2.718v1.818c-.132.12-.294.246-.486.378a3.569 3.569 0 0 1-.657.351c-.246.102-.51.183-.792.243-.282.06-.573.09-.873.09a3.997 3.997 0 0 1-2.925-1.215 4.113 4.113 0 0 1-.864-1.359 4.634 4.634 0 0 1-.315-1.728c0-.624.105-1.197.315-1.719a4.24 4.24 0 0 1 .864-1.359 3.93 3.93 0 0 1 1.296-.9 4.05 4.05 0 0 1 1.629-.324 3.946 3.946 0 0 1 2.754 1.152.985.985 0 0 0 .72.306.995.995 0 0 0 .702-.288.908.908 0 0 0 .306-.684c0-.12-.024-.24-.072-.36a1.12 1.12 0 0 0-.198-.324 5.96 5.96 0 0 0-1.755-1.224c-.69-.324-1.509-.486-2.457-.486-.864 0-1.68.147-2.448.441a6.005 6.005 0 0 0-2.007 1.251 5.865 5.865 0 0 0-1.35 1.953c-.33.762-.495 1.617-.495 2.565s.165 1.803.495 2.565c.33.762.78 1.416 1.35 1.962.57.546 1.239.966 2.007 1.26a6.788 6.788 0 0 0 2.448.441zm13.744-.018c.9 0 1.728-.153 2.484-.459a5.676 5.676 0 0 0 1.953-1.296 5.891 5.891 0 0 0 1.269-1.971c.3-.756.45-1.584.45-2.484 0-.9-.15-1.728-.45-2.484a5.891 5.891 0 0 0-1.269-1.971 5.676 5.676 0 0 0-1.953-1.296c-.756-.306-1.584-.459-2.484-.459-.9 0-1.725.153-2.475.459a5.696 5.696 0 0 0-1.944 1.296 5.891 5.891 0 0 0-1.269 1.971c-.3.756-.45 1.584-.45 2.484 0 .9.15 1.728.45 2.484.3.756.723 1.413 1.269 1.971.546.558 1.194.99 1.944 1.296.75.306 1.575.459 2.475.459zm0-1.908c-.6 0-1.143-.111-1.629-.333a3.759 3.759 0 0 1-1.242-.9 3.959 3.959 0 0 1-.792-1.359 5.111 5.111 0 0 1-.279-1.71c0-.612.093-1.182.279-1.71.186-.528.45-.984.792-1.368a3.597 3.597 0 0 1 1.242-.9 3.968 3.968 0 0 1 1.629-.324c.6 0 1.143.108 1.629.324.486.216.9.516 1.242.9.342.384.606.84.792 1.368.186.528.279 1.098.279 1.71 0 .612-.093 1.182-.279 1.71-.186.528-.45.981-.792 1.359a3.759 3.759 0 0 1-1.242.9 3.876 3.876 0 0 1-1.629.333z"
              fill="white" fill-rule="nonzero"/>
    </g>
</svg>