<svg width="24" height="24" viewBox="0 0 24 24" fill="none"
    xmlns="http://www.w3.org/2000/svg">
    <path fill-rule="evenodd" clip-rule="evenodd" d="M13 20.1402C13 21.5105 12.6562 21.8589 12 23.0619C11.3438 21.8589 11 21.5105 11 20.1402V17H13V20.1402ZM12 16C8.13401 16 5 12.866 5 9C5 5.13401 8.13401 2 12 2C15.866 2 19 5.13401 19 9C19 12.866 15.866 16 12 16ZM12 11C13.1046 11 14 10.1046 14 9C14 7.89543 13.1046 7 12 7C10.8954 7 10 7.89543 10 9C10 10.1046 10.8954 11 12 11Z" fill="black"/>
</svg>
