<?xml version="1.0" encoding="UTF-8" standalone="no"?>
<svg width="32px" height="32px" viewBox="0 0 32 32" version="1.1" xmlns="http://www.w3.org/2000/svg">
    <!-- Generator: Sketch 3.2.2 (9983) - http://www.bohemiancoding.com/sketch -->
    <title>ic-favourite-location-32px</title>
    <desc>Created with Sketch.</desc>
    <g id="Assets" stroke="none" stroke-width="1" fill="none" fill-rule="evenodd">
        <g transform="translate(-5.000000, -347.000000)" id="Favourite-Location">
            <g transform="translate(5.000000, 347.000000)">
                <path d="M30,16 C30,13.790861 28.209139,12 26,12 C23.790861,12 22,13.790861 22,16 C22,18.209139 23.790861,20 26,20 C28.209139,20 30,18.209139 30,16 Z M26,18 C27.1045695,18 28,17.1045695 28,16 C28,14.8954305 27.1045695,14 26,14 C24.8954305,14 24,14.8954305 24,16 C24,17.1045695 24.8954305,18 26,18 Z M18.5001517,17 C19.0524364,17 19.5001517,16.5522847 19.5001517,16 C19.5001517,15.4477153 19.0524364,15 18.5001517,15 C17.9478669,15 17.5001517,15.4477153 17.5001517,16 C17.5001517,16.5522847 17.9478669,17 18.5001517,17 Z M14.5001517,17 C15.0524364,17 15.5001517,16.5522847 15.5001517,16 C15.5001517,15.4477153 15.0524364,15 14.5001517,15 C13.9478669,15 13.5001517,15.4477153 13.5001517,16 C13.5001517,16.5522847 13.9478669,17 14.5001517,17 Z M5.43072458,16.5793072 C5.68028955,16.6046873 5.90262924,16.8267639 5.92803949,17.0760336 L6.38633152,21.6041302 C6.43669826,22.1008566 6.64451781,22.134848 6.85006859,21.6793643 L11.41983,11.5340893 C11.6253807,11.077246 11.4220987,10.8746578 10.965168,11.0804186 L0.821486587,15.6570094 C0.364555826,15.8632234 0.399041167,16.0712503 0.897263585,16.1211042 L5.43072458,16.5793072 Z" id="Favourite-Trip" fill="#212121"></path>
            </g>
        </g>
    </g>
</svg>