<?xml version="1.0" encoding="UTF-8" standalone="no"?>
<svg width="32px" height="32px" viewBox="0 0 32 32" version="1.1" xmlns="http://www.w3.org/2000/svg" role="img">
    <desc>Created with Sketch.</desc>
    <g id="Assets" stroke="none" stroke-width="1" fill="none" fill-rule="evenodd">
        <g transform="translate(-42.000000, -347.000000)" id="Favourite-Trip">
            <g transform="translate(42.000000, 347.000000)">
                <path d="M11,16 C11,13.790861 9.209139,12 7,12 C4.790861,12 3,13.790861 3,16 C3,18.209139 4.790861,20 7,20 C9.209139,20 11,18.209139 11,16 Z M7,18 C8.1045695,18 9,17.1045695 9,16 C9,14.8954305 8.1045695,14 7,14 C5.8954305,14 5,14.8954305 5,16 C5,17.1045695 5.8954305,18 7,18 Z M30,16 C30,13.790861 28.209139,12 26,12 C23.790861,12 22,13.790861 22,16 C22,18.209139 23.790861,20 26,20 C28.209139,20 30,18.209139 30,16 Z M26,18 C27.1045695,18 28,17.1045695 28,16 C28,14.8954305 27.1045695,14 26,14 C24.8954305,14 24,14.8954305 24,16 C24,17.1045695 24.8954305,18 26,18 Z M18.5001517,17 C19.0524364,17 19.5001517,16.5522847 19.5001517,16 C19.5001517,15.4477153 19.0524364,15 18.5001517,15 C17.9478669,15 17.5001517,15.4477153 17.5001517,16 C17.5001517,16.5522847 17.9478669,17 18.5001517,17 Z M14.5001517,17 C15.0524364,17 15.5001517,16.5522847 15.5001517,16 C15.5001517,15.4477153 15.0524364,15 14.5001517,15 C13.9478669,15 13.5001517,15.4477153 13.5001517,16 C13.5001517,16.5522847 13.9478669,17 14.5001517,17 Z" fill="#212121"></path>
            </g>
        </g>
    </g>
</svg>