<svg width="24" height="24" viewBox="0 0 24 24" fill="none"
    xmlns="http://www.w3.org/2000/svg">
    <path fill-rule="evenodd" clip-rule="evenodd" d="M8 12C8 14.2091 6.20914 16 4 16C1.79086 16 0 14.2091 0 12C0 9.79086 1.79086 8 4 8C6.20914 8 8 9.79086 8 12ZM24 12C24 14.2091 22.2091 16 20 16C17.7909 16 16 14.2091 16 12C16 9.79086 17.7909 8 20 8C22.2091 8 24 9.79086 24 12ZM9.5 11.5C9.22386 11.5 9 11.7239 9 12C9 12.2761 9.22386 12.5 9.5 12.5H12V13.4325C12 13.8564 12.4944 14.088 12.8201 13.8166L14.5391 12.3841C14.7789 12.1842 14.7789 11.8158 14.5391 11.6159L12.8201 10.1834C12.4944 9.91202 12 10.1436 12 10.5675V11.5H9.5Z" fill="black"/>
</svg>
