<svg width="22px" height="24px" viewBox="0 0 22 24" version="1.1" xmlns="http://www.w3.org/2000/svg" xmlns:xlink="http://www.w3.org/1999/xlink">
	<g id="Page-1" stroke="none" stroke-width="1" fill="none" fill-rule="evenodd">
		<g id="Desktop-HD" transform="translate(-292.000000, -581.000000)" fill="#FFFFFF">
			<g id="Group-2" transform="translate(100.000000, 364.000000)">
				<g id="Group-3" transform="translate(0.000000, 201.000000)">
					<g id="icon-play-store" transform="translate(192.000000, 16.000000)">
						<path d="M16.1431111,8.32506122 L1.85044444,0.451591837 C1.44613333,0.229714286 1.07115556,0.178285714 0.769511111,0.271591837 L12.4764444,11.9992653 L16.1431111,8.32506122 Z" id="Shape" opacity="0.780000031"></path>
						<path d="M16.1621778,15.6920816 L21.0405556,13.003102 C22.0300667,12.4550204 22.0300667,11.565551 21.0405556,11.0218776 L16.1443333,8.32506122 L12.4764444,11.9995102 L16.1621778,15.6920816 Z" opacity="0.481459888"></path>
						<path d="M0.768533333,0.270857143 C0.3344,0.407020408 0.0523111111,0.848816327 0.0523111111,1.51567347 L0.0523111111,22.5090612 C0.0523111111,23.1683265 0.326088889,23.6022857 0.747266667,23.7470204 L12.474,11.9985306 L0.768533333,0.270857143 Z"></path>
						<path d="M0.749711111,23.7477551 C1.05477778,23.8515918 1.4366,23.7991837 1.85044444,23.5763265 L16.1612,15.6920816 L12.4764444,12.0004898 L0.749711111,23.7477551 Z" opacity="0.797887127"></path>
					</g>
				</g>
			</g>
		</g>
	</g>
</svg>