<?xml version="1.0" encoding="UTF-8" standalone="no"?>
<svg width="20px" height="24px" viewBox="0 0 20 24" version="1.1" xmlns="http://www.w3.org/2000/svg" xmlns:xlink="http://www.w3.org/1999/xlink">
	<!-- Generator: Sketch 3.8.3 (29802) - http://www.bohemiancoding.com/sketch -->
	<title>icon-apple</title>
	<desc>Created with Sketch.</desc>
	<defs></defs>
	<g id="Page-1" stroke="none" stroke-width="1" fill="none" fill-rule="evenodd">
		<g id="Desktop-HD" transform="translate(-248.000000, -581.000000)" fill="#FFFFFF">
			<g id="Group-2" transform="translate(100.000000, 364.000000)">
				<g id="Group-3" transform="translate(0.000000, 201.000000)">
					<path d="M164.70339,28.7261671 C164.737906,32.3512111 167.964256,33.5575344 168,33.5729316 C167.97272,33.6580082 167.484483,35.2920604 166.300205,36.9799197 C165.27645,38.4391595 164.213926,39.8930539 162.540137,39.9231653 C160.895473,39.9527194 160.366621,38.972025 158.486304,38.972025 C156.606555,38.972025 156.018976,39.8930515 154.462118,39.9527194 C152.846488,40.0123436 151.616202,38.3747448 150.583938,36.9208504 C148.474632,33.9468605 146.862686,28.5170536 149.027122,24.8518453 C150.102368,23.031688 152.023913,21.8790884 154.109579,21.8495322 C155.696087,21.8200187 157.193562,22.8904522 158.163414,22.8904522 C159.132652,22.8904522 160.952403,21.6031621 162.86544,21.7922169 C163.666302,21.8247242 165.914337,22.1077095 167.357861,24.1683344 C167.241549,24.2386539 164.675496,25.6954975 164.70339,28.7261705 M161.612433,19.8246631 C162.470182,18.8121015 163.047497,17.402522 162.889999,16 C161.653618,16.048461 160.158556,16.8034888 159.271727,17.8154934 C158.476959,18.7116705 157.78092,20.1460592 157.968723,21.5208223 C159.346815,21.6248033 160.754642,20.8378687 161.612433,19.8246648" id="icon-apple"></path>
				</g>
			</g>
		</g>
	</g>
</svg>