<svg xmlns="http://www.w3.org/2000/svg" width="24" height="24" viewBox="0 0 24 24"><path fill="#212A33" fill-rule="evenodd" d="M17 2a3 3 0 0 1 3 3v16a1 1 0 0 1-1.555.832L12 18.202l-6.445 3.63A1 1 0 0 1 4 21V5a3 3 0 0 1 3-3h10zm0 2H7a1 1 0 0 0-1 1v14.131l5.445-2.963a1 1 0 0 1 1.11 0L18 19.13V5a1 1 0 0 0-1-1zm-4.794 4.048c.091.045.165.12.21.211l.676 1.369 1.51.22a.464.464 0 0 1 .258.791l-1.093 1.066.258 1.504a.464.464 0 0 1-.674.49l-1.135-.597a.464.464 0 0 0-.432 0l-1.135.596a.464.464 0 0 1-.674-.49l.258-1.503-1.093-1.066a.464.464 0 0 1 .258-.792l1.51-.22.676-1.368a.464.464 0 0 1 .622-.21z"/></svg>