<?xml version="1.0" encoding="UTF-8" standalone="no"?>
<svg width="144px" height="30px" viewBox="0 0 144 30" version="1.1" xmlns="http://www.w3.org/2000/svg">
    <!-- Generator: Sketch 3.3 (11970) - http://www.bohemiancoding.com/sketch -->
    <title>tripgo_logo</title>
    <desc>Created with Sketch.</desc>
    <defs></defs>
    <g id="Page-1" stroke="none" stroke-width="1" fill="none" fill-rule="evenodd">
        <g id="tripgo_logo">
            <path d="M129.723752,0.981918947 C129.713428,0.981918947 129.703607,0.981663022 129.693786,0.981663022 C121.809471,0.981663022 115.417662,7.4780688 115.417662,15.4913434 C115.417662,23.5038501 121.809471,30 129.693786,30 C137.578101,30 143.96991,23.5038501 143.96991,15.4913434 L143.96991,4.55386724 C143.96991,2.58145157 142.396573,0.982430798 140.455838,0.982430798 L129.723752,0.981918947 L129.723752,0.981918947 Z M129.693786,24.4195506 C124.841319,24.4195506 120.908227,20.4222546 120.908227,15.4913434 C120.908227,10.5596644 124.841319,6.56236837 129.693786,6.56236837 C134.546253,6.56236837 138.479093,10.5596644 138.479093,15.4913434 C138.479093,20.4222546 134.546253,24.4195506 129.693786,24.4195506 L129.693786,24.4195506 L129.693786,24.4195506 Z" id="O" fill="#7CC257"></path>
            <path d="M100.367207,30 C92.3091404,30 85.7546584,24.2473129 85.7546584,15.4703575 C85.7546584,6.69340208 92.3091404,0.981918947 100.367207,0.981918947 C104.750796,0.981918947 107.924163,2.66206802 110.136858,4.97128127 C110.554366,5.39151049 110.762869,5.97962664 110.762869,6.56723095 C110.762869,7.8271508 109.677296,8.83524024 108.42477,8.83524024 C107.798759,8.83524024 107.214549,8.58289798 106.754988,8.12120888 C105.085205,6.44131574 102.747107,5.43373815 100.367207,5.43373815 C94.8980461,5.43373815 90.8478603,9.63295915 90.8478603,15.4703575 C90.8478603,21.2650163 94.8980461,25.5067209 100.367207,25.5067209 C103.164615,25.5067209 105.669667,24.2050852 106.880392,23.0291089 L106.880392,18.7876602 L100.57571,18.7876602 C99.4070382,18.7876602 98.4466173,17.8215425 98.4466173,16.5199068 C98.4466173,15.3441864 99.4070382,14.3780687 100.57571,14.3780687 L108.842279,14.3780687 C110.512565,14.3780687 111.848945,15.7641596 111.848945,17.4018251 L111.848945,22.4832204 C111.848945,27.2703016 105.711216,30 100.367207,30 L100.367207,30 L100.367207,30 Z" id="G" fill="#7CC257"></path>
            <path d="M81.824,10.176 C81.824,5.598 78.674,1.734 73.046,1.734 L64.31,1.734 C62.924,1.734 61.79,2.868 61.79,4.254 L61.79,28.278 C61.79,29.244 62.546,30 63.512,30 C64.52,30 65.276,29.244 65.276,28.278 L65.276,18.618 L73.046,18.618 C78.59,18.618 81.824,14.754 81.824,10.176 L81.824,10.176 Z M78.212,10.176 C78.212,13.326 75.944,15.51 72.626,15.51 L65.276,15.51 L65.276,4.842 L72.626,4.842 C75.944,4.842 78.212,7.026 78.212,10.176 L78.212,10.176 Z" id="P" fill="#5B6370"></path>
            <path d="M55.238,28.278 L55.238,3.162 C55.238,2.238 54.482,1.482 53.558,1.482 C52.508,1.482 51.752,2.238 51.752,3.162 L51.752,28.278 C51.752,29.244 52.508,30 53.474,30 C54.482,30 55.238,29.244 55.238,28.278 L55.238,28.278 L55.238,28.278 Z" id="I" fill="#5B6370"></path>
            <path d="M46.25,10.176 C46.25,5.01 42.596,1.734 37.472,1.734 L28.736,1.734 C27.35,1.734 26.216,2.868 26.216,4.254 L26.216,28.278 C26.216,29.244 26.972,30 27.938,30 C28.946,30 29.702,29.244 29.702,28.278 L29.702,18.618 L35.288,18.618 L42.134,29.244 C42.47,29.748 42.974,30 43.52,30 C44.528,30 45.242,29.16 45.242,28.32 C45.242,28.026 45.158,27.732 44.99,27.438 L38.984,18.324 C42.806,17.988 46.25,15.216 46.25,10.176 L46.25,10.176 Z M37.052,4.842 C40.37,4.842 42.638,7.026 42.638,10.176 C42.638,13.326 40.37,15.552 37.052,15.552 L29.702,15.552 L29.702,4.842 L37.052,4.842 L37.052,4.842 Z" id="R" fill="#5B6370"></path>
            <path d="M21.848,3.33 C21.848,2.406 21.176,1.734 20.336,1.734 L1.604,1.734 C0.764,1.734 0.092,2.406 0.092,3.246 C0.092,4.17 0.764,4.842 1.604,4.842 L9.206,4.842 L9.206,28.278 C9.206,29.244 9.962,30 10.928,30 C11.936,30 12.692,29.244 12.692,28.278 L12.692,4.842 L20.336,4.842 C21.176,4.842 21.848,4.17 21.848,3.33 L21.848,3.33 L21.848,3.33 Z" id="T" fill="#5B6370"></path>
        </g>
    </g>
</svg>